<svg width="512" height="512" viewBox="0 0 512 512" fill="none" xmlns="http://www.w3.org/2000/svg">
<path d="M111.77 429.845C101.595 427.385 90.6709 419.041 86.0064 410.167C81.1987 401.021 81 399.764 81 378.5C81 356.666 81.2785 354.801 86.0643 344.594C91.3238 333.376 99.5851 325.114 110.934 319.724C121.388 314.758 121.422 314.755 156.834 314.612L188.862 314.482L192.004 310.484C196.36 304.94 202.606 300.033 209.498 296.739C220.633 291.417 221.084 291.364 255.859 291.364C290.685 291.364 291.172 291.421 302.22 296.78C309.314 300.221 315.367 304.951 319.651 310.403L322.856 314.482L354.884 314.612C390.296 314.755 390.331 314.759 400.784 319.724C414.712 326.339 424.921 338.494 429.386 353.775C431.143 359.787 431.612 390.772 430.059 398.188C427.535 410.239 419.859 420.606 409.393 426.098C400.453 430.79 398.691 430.977 363.366 430.989L331.79 430.998V425.165V419.332H358.073H384.357V387.248V355.165H390.198H396.038V386.884C396.038 423.207 395.334 420.295 403.175 416.382C408.923 413.513 415.042 406.991 417.315 401.31C418.873 397.415 419.022 395.808 419.257 380.321C419.551 360.957 419.06 357.327 415.019 348.967C410.446 339.505 401.886 331.924 391.455 328.098C387.059 326.485 385.974 326.423 357.793 326.169L328.675 325.907L329.162 327.593C331.503 335.687 331.79 340.529 331.79 371.964C331.79 392.567 331.502 405.322 330.98 407.811C328.678 418.803 319.939 427.722 309.004 430.241C307.281 430.638 301.189 430.971 295.467 430.981L285.063 430.999V384.333V337.667H290.904H296.745V378.577V419.488L302.46 419.228C309.633 418.903 314.167 416.424 317.533 410.987L319.743 407.418L319.946 373.293C320.173 335.157 320.015 333.48 315.335 324.586C310.533 315.46 301.279 307.783 291.299 304.647C286.337 303.087 285.107 303.031 255.859 303.031C226.611 303.031 225.381 303.087 220.419 304.647C206.486 309.025 194.987 321.806 192.351 335.844C191.796 338.802 191.602 351.099 191.753 373.819L191.975 407.419L194.185 410.987C197.551 416.424 202.085 418.903 209.258 419.228L214.973 419.488V378.577V337.667H220.814H226.655V384.333V431L216.251 430.982C210.529 430.973 204.437 430.639 202.714 430.242C191.779 427.723 183.041 418.804 180.738 407.813C180.217 405.324 179.928 392.569 179.928 371.966C179.928 340.531 180.215 335.689 182.556 327.595L183.043 325.908L153.925 326.171C125.744 326.425 124.659 326.487 120.263 328.1C110.442 331.702 101.679 339.196 97.0893 347.919C92.8013 356.069 92.1888 360.308 92.4676 379.908C92.6943 395.851 92.8341 397.398 94.4013 401.311C96.6771 406.993 102.797 413.516 108.543 416.383C116.384 420.297 115.68 423.209 115.68 386.885V355.166H121.52H127.361V387.25V419.333H153.645H179.928V425.166V431L147.987 430.939C123.087 430.891 115.102 430.651 111.77 429.845ZM232.496 425.167V419.333H255.859H279.222V425.167V431H255.859H232.496V425.167ZM147.886 307.348C130.64 302.715 119.188 285.353 122.119 268.282C124.345 255.318 132.569 245.507 145.249 240.688C151.251 238.407 161.58 238.368 167.823 240.604C180.221 245.045 188.775 255.255 191.011 268.282C195.14 292.328 171.545 313.702 147.886 307.348ZM166.637 294.74C171.406 292.283 175.287 288.396 177.534 283.825C179.277 280.28 179.561 278.823 179.546 273.5C179.531 268.509 179.196 266.629 177.827 263.849C172.157 252.332 158.242 247.2 146.966 252.467C130.255 260.272 128.452 282.749 143.714 293.006C148.508 296.228 150.834 296.822 157.661 296.571C161.946 296.413 164.336 295.926 166.637 294.74ZM346.474 307.348C329.227 302.715 317.776 285.353 320.707 268.282C322.933 255.318 331.156 245.507 343.836 240.688C349.839 238.407 360.168 238.368 366.41 240.604C378.808 245.045 387.362 255.255 389.599 268.282C393.728 292.328 370.133 313.702 346.474 307.348ZM365.225 294.74C369.994 292.283 373.874 288.396 376.121 283.825C377.865 280.28 378.148 278.823 378.133 273.5C378.117 268.509 377.784 266.629 376.415 263.849C370.744 252.332 356.829 247.2 345.553 252.467C328.843 260.272 327.04 282.749 342.302 293.006C347.096 296.228 349.421 296.822 356.248 296.571C360.533 296.413 362.924 295.926 365.225 294.74ZM247.18 284.014C229.933 279.382 218.482 262.02 221.413 244.948C223.639 231.985 231.863 222.174 244.543 217.355C250.545 215.073 260.874 215.035 267.117 217.271C279.514 221.712 288.068 231.921 290.305 244.948C294.434 268.995 270.839 290.369 247.18 284.014ZM265.931 271.407C270.7 268.949 274.58 265.063 276.828 260.492C278.571 256.947 278.855 255.49 278.839 250.167C278.825 245.176 278.49 243.296 277.121 240.515C271.45 228.999 257.536 223.867 246.26 229.134C229.549 236.939 227.746 259.416 243.008 269.673C247.802 272.895 250.127 273.489 256.954 273.238C261.24 273.08 263.63 272.592 265.931 271.407ZM109.474 272.413C107.743 271.807 105.164 269.894 103.14 267.714C98.298 262.499 97.9888 260.5 98.2805 236.313C98.5086 217.406 98.6125 216.094 100.098 213.344C102.119 209.604 105.063 206.831 108.744 205.2C111.063 204.172 114.43 203.826 125.105 203.521L138.546 203.135L140.15 198.381C141.033 195.765 143.173 190.577 144.906 186.851L148.058 180.076L138.878 170.825C133.829 165.736 129.115 160.425 128.403 159.021C127.596 157.429 127.105 154.818 127.098 152.079C127.082 145.168 129.19 142.148 144.846 126.648C159.807 111.837 162.211 110.199 168.977 110.199C175.357 110.199 178.521 112.112 188.442 121.972L197.319 130.795L204.91 127.412C209.084 125.551 214.288 123.422 216.475 122.681L220.449 121.333L220.821 107.547C221.237 92.1138 221.817 90.035 226.967 85.5196C231.509 81.5365 234.939 81 255.859 81C276.779 81 280.209 81.5365 284.751 85.5196C289.898 90.0325 290.481 92.118 290.897 107.51L291.269 121.259L297.106 123.383C300.317 124.551 305.509 126.709 308.644 128.178L314.344 130.849L323.249 121.999C333.199 112.111 336.344 110.208 342.78 110.183C349.587 110.156 352.451 112.144 367.664 127.459C376.018 135.869 381.914 142.423 382.938 144.438C385.037 148.57 385.211 155.283 383.315 159.021C382.603 160.425 377.889 165.736 372.84 170.825L363.66 180.076L366.812 186.851C368.545 190.577 370.685 195.765 371.568 198.381L373.172 203.135L386.613 203.521C397.288 203.827 400.655 204.172 402.974 205.2C406.655 206.831 409.599 209.604 411.62 213.344C413.106 216.094 413.21 217.406 413.438 236.313C413.722 259.874 413.368 262.378 409.057 267.269C405.663 271.12 403.285 272.529 399.035 273.208L396.038 273.686V267.76C396.038 262.9 396.241 261.833 397.167 261.833C397.787 261.833 399.101 261.028 400.087 260.044L401.879 258.254V238.85C401.879 227.678 401.578 218.884 401.169 218.121C400.779 217.393 399.875 216.512 399.162 216.164C398.448 215.817 390.34 215.368 381.145 215.167L364.426 214.802L362.828 208.969C360.654 201.032 356.544 191.179 352.525 184.268L349.186 178.525L361.295 166.354C371.321 156.278 373.405 153.823 373.405 152.088C373.405 150.34 371.082 147.66 359.443 135.98C351.764 128.274 344.752 121.83 343.862 121.66C340.81 121.077 338.706 122.644 327.316 133.98L315.906 145.336L310.704 142.301C303.793 138.27 296.567 135.202 287.253 132.346L279.587 129.996L279.189 112.607C278.97 103.044 278.723 95.1451 278.641 95.0552C278.559 94.9652 277.493 94.3758 276.273 93.7453C274.385 92.7704 271.168 92.6313 254.759 92.8151C237.395 93.0096 235.336 93.1612 234.163 94.3317C233.01 95.4835 232.819 97.597 232.496 112.814L232.131 129.996L224.465 132.354C214.512 135.415 208.867 137.788 201.659 141.941L195.795 145.319L184.394 133.976C178.123 127.738 172.089 122.298 170.985 121.887C169.758 121.431 168.338 121.392 167.334 121.787C166.431 122.142 159.531 128.634 152.002 136.213C140.614 147.678 138.313 150.346 138.313 152.089C138.313 153.823 140.4 156.281 150.423 166.354L162.532 178.525L159.193 184.268C155.238 191.069 151.49 200.037 149.023 208.604L147.238 214.802L129.933 215.167C112.831 215.527 112.611 215.552 111.233 217.253C109.938 218.852 109.839 220.37 109.839 238.614V258.254L111.631 260.044C112.617 261.028 113.931 261.833 114.551 261.833C115.475 261.833 115.68 262.891 115.68 267.667C115.68 273.239 115.606 273.499 114.037 273.468C113.133 273.45 111.08 272.976 109.474 272.413ZM174.092 236.13C174.108 227.57 178.235 211.203 182.548 202.598C194.132 179.487 216.609 162.714 241.987 158.243C248.749 157.052 263.37 157.043 269.731 158.227C295.727 163.065 317.503 179.321 329.17 202.598C333.483 211.202 337.611 227.57 337.626 236.13L337.63 238.5H331.789H325.948L325.937 235.036C325.933 233.131 325.314 228.62 324.564 225.01C319.039 198.414 299.659 177.858 273.534 170.884C267.446 169.258 264.946 168.991 255.857 168.991C246.768 168.991 244.267 169.259 238.183 170.883C216.836 176.582 198.522 192.705 190.781 212.614C188.172 219.326 185.791 229.993 185.777 235.036L185.767 238.5H179.928H174.087L174.092 236.13Z" fill="currentColor"/>
</svg>
