<svg width="512" height="512" viewBox="0 0 512 512" fill="none" xmlns="http://www.w3.org/2000/svg">
<path d="M399.153 434.543C398.897 434.055 398.084 433.062 397.346 432.337L396.003 431.018L397.017 430.21C398.212 429.257 398.317 428.852 397.299 429.118C396.387 429.356 395.827 427.93 396.509 427.108C397.215 426.258 398.798 426.388 398.798 427.296C398.798 427.706 398.952 428.136 399.14 428.252C399.328 428.368 399.595 428.914 399.733 429.466C399.872 430.017 400.35 430.962 400.796 431.565C401.467 432.473 401.545 432.881 401.246 433.924C400.806 435.456 399.79 435.756 399.153 434.543ZM201.585 427.316C201.202 426.892 200.66 426.589 200.381 426.644C199.637 426.789 197.664 425.368 197.203 424.355C196.983 423.872 196.557 423.478 196.257 423.478C195.408 423.478 191.032 419.603 190.79 418.637C190.671 418.162 190.243 417.475 189.839 417.11C189.436 416.745 189.106 415.976 189.106 415.401C189.106 414.827 188.872 413.687 188.588 412.869C188.303 412.05 187.956 410.389 187.817 409.177C187.678 407.965 187.22 406.409 186.8 405.72C185.808 404.092 185.808 403.359 186.802 403.618C187.929 403.913 187.806 402.527 186.636 401.761C185.198 400.819 184.482 399.457 183.697 396.172C183.088 393.622 180.739 387.859 179.486 385.841C179.289 385.524 178.785 384.63 178.364 383.855C177.944 383.08 176.871 381.956 175.981 381.358C174.579 380.417 174.264 379.935 173.632 377.775C173.231 376.402 172.684 375.02 172.417 374.703C170.896 372.897 169.283 367.536 169.009 363.374C168.954 362.529 168.7 361.46 168.446 360.998C168.191 360.537 167.982 359.932 167.981 359.654C167.979 359.376 167.696 358.63 167.351 357.997C167.006 357.363 166.749 356.393 166.779 355.841C166.854 354.497 165.861 352.196 165.076 351.895C164.626 351.722 164.513 351.382 164.681 350.712C164.856 350.017 164.723 349.666 164.172 349.371C163.762 349.152 163.308 348.583 163.164 348.108C163.02 347.632 162.603 346.898 162.239 346.475C161.441 345.552 159.534 342.111 159.534 341.596C159.534 341.394 158.736 339.645 157.762 337.707C156.787 335.77 155.849 333.667 155.676 333.033C155.503 332.4 155.09 331.142 154.757 330.238C154.406 329.282 154.085 326.87 153.991 324.477C153.836 320.532 153.718 319.774 152.997 318.055C152.819 317.633 152.583 316.423 152.472 315.367C152.282 313.564 152.063 312.498 151.144 308.906C150.938 308.098 150.459 307.095 150.08 306.676C149.498 306.034 149.467 305.792 149.88 305.131C150.287 304.48 150.268 304.236 149.767 303.682C148.905 302.731 149.012 302.071 150.306 300.361C150.934 299.532 151.452 298.637 151.458 298.373C151.475 297.591 150.389 297.826 150.124 298.661C149.631 300.215 149.272 299.345 149.055 296.068C148.933 294.22 148.56 292.06 148.226 291.269C147.659 289.924 147.669 289.681 148.392 287.537C148.817 286.275 149.164 284.829 149.164 284.323C149.164 283.816 149.535 282.93 149.989 282.354C150.717 281.428 150.766 281.12 150.406 279.71C149.79 277.296 148.903 274.418 148.352 273.044C147.924 271.979 147.945 271.72 148.511 271.094C148.87 270.697 149.164 270.017 149.164 269.583C149.164 269.117 149.479 268.712 149.932 268.593C151.186 268.266 150.807 267.552 149.379 267.552C147.692 267.552 147.331 266.958 148.356 265.867C149.407 264.748 149.375 264.315 148.204 263.782C147.676 263.541 147.244 263.094 147.244 262.787C147.244 262.166 148.257 261.024 148.808 261.024C149.004 261.024 149.164 260.764 149.164 260.447C149.164 260.115 148.817 259.871 148.343 259.871C147.891 259.871 147.291 259.569 147.011 259.199C146.547 258.589 146.499 258.626 146.488 259.599C146.482 260.188 146.108 261.168 145.659 261.775C145.022 262.637 144.899 263.182 145.1 264.251C145.25 265.05 145.175 265.961 144.921 266.436C144.605 267.025 144.601 267.367 144.904 267.67C145.625 268.391 145.364 269.923 144.363 270.851C143.835 271.34 143.403 272.103 143.403 272.546C143.403 273.116 142.981 273.526 141.963 273.946C141.171 274.272 140.177 274.848 139.755 275.226C139.332 275.604 138.555 276.035 138.027 276.184C137.498 276.333 136.029 276.851 134.762 277.335C131.642 278.526 127.532 278.915 126.406 278.126C125.944 277.802 125.178 277.538 124.704 277.538C124.23 277.538 123.206 276.976 122.427 276.29C121.649 275.603 120.245 274.356 119.306 273.519C118.368 272.682 117.112 271.04 116.515 269.871C115.893 268.65 113.873 266.108 111.773 263.904C107.617 259.54 106.286 257.456 106.672 255.919C106.813 255.359 107.301 254.701 107.757 254.457C108.484 254.068 108.712 254.167 109.605 255.261C110.444 256.289 110.789 256.458 111.556 256.218C112.068 256.058 112.611 255.735 112.763 255.499C112.964 255.189 113.254 255.204 113.819 255.554C114.32 255.864 114.84 255.915 115.271 255.697C117.172 254.734 118.949 254.111 119.792 254.111C120.425 254.111 121.329 253.48 122.547 252.19C123.544 251.134 124.562 250.27 124.809 250.27C125.517 250.27 126.158 249.278 125.894 248.591C125.606 247.839 124.969 247.76 124.969 248.477C124.969 249.212 123.279 250.011 122.35 249.716C121.782 249.536 121.44 249.687 121.138 250.252C120.803 250.878 120.339 251.038 118.857 251.038C117.673 251.038 116.824 251.247 116.52 251.614C115.708 252.592 113.377 252.308 111.009 250.942C106.637 248.421 105.198 247.36 104.366 246.045C103.899 245.306 103.055 244.14 102.491 243.453C101.596 242.364 101.517 242.059 101.868 241.053C102.297 239.821 101.942 239.532 101.157 240.477C100.092 241.761 98.4176 240.664 99.2029 239.197C99.3939 238.84 99.4646 238.102 99.3602 237.557C99.0942 236.165 100.175 235.141 101.501 235.529C102.051 235.69 103.193 235.833 104.038 235.845L105.574 235.868L105.696 234.148C105.854 231.937 106.317 231.341 107.431 231.913C109.368 232.907 109.657 233.002 110.043 232.764C110.265 232.626 110.848 232.727 111.336 232.989C112.072 233.383 112.377 233.358 113.113 232.842C114.331 231.99 115.593 232.062 116.572 233.04C117.023 233.491 117.93 233.99 118.588 234.148C119.246 234.306 120.043 234.542 120.36 234.672C120.741 234.829 121.157 234.52 121.59 233.757C122.178 232.72 122.435 232.604 124.136 232.604C125.355 232.604 126.198 232.397 126.509 232.023C127.143 231.258 127.952 231.904 128.114 233.304C128.268 234.63 129.703 234.927 130.419 233.78C130.763 233.23 131.317 232.988 132.233 232.988H133.552L132.651 232.029C131.846 231.172 131.804 230.97 132.258 230.122C132.654 229.382 132.664 229.052 132.305 228.62C132.052 228.315 131.437 226.797 130.938 225.246C130.438 223.695 129.762 221.801 129.435 221.037C129.062 220.165 128.925 219.128 129.067 218.252C129.318 216.708 129.227 216.657 127.401 217.317C126.166 217.764 126.091 217.73 124.686 216.106C123.891 215.187 123.03 214.073 122.774 213.63C122.077 212.427 122.19 210.664 123.048 209.369C123.468 208.735 123.812 207.655 123.814 206.968C123.816 205.849 123.702 205.72 122.712 205.72C122.105 205.72 120.829 205.284 119.876 204.752C118.53 203.999 117.961 203.362 117.331 201.896C116.884 200.858 116.52 199.782 116.521 199.504C116.523 198.479 118.08 196.495 120.163 194.86C121.341 193.935 123.188 192.006 124.266 190.574C126.345 187.814 127.911 186.829 130.345 186.752L131.689 186.709L131.881 188.822C132.098 191.203 132.333 191.303 135.146 190.217C136.079 189.856 137.963 189.617 139.946 189.606L143.211 189.588L143.979 188.152C144.401 187.362 145.396 186.296 146.19 185.782C147.24 185.103 147.746 184.431 148.046 183.317C148.539 181.485 151.259 178.61 152.858 178.229C154.29 177.888 155.108 177.158 156.696 174.804C157.409 173.748 158.512 172.209 159.147 171.385C159.783 170.561 160.491 169.178 160.721 168.313C161.331 166.022 162.796 164.243 164.072 164.243C165.219 164.243 167.958 162.569 168.023 161.828C168.046 161.572 168.029 160.869 167.99 160.267C167.932 159.404 168.333 158.77 169.884 157.275C170.999 156.2 172.054 154.76 172.318 153.953C172.592 153.113 173.148 152.371 173.673 152.145C174.373 151.843 174.521 151.545 174.364 150.752C174.251 150.18 174.401 149.432 174.71 149.024C175.417 148.09 175.415 146.997 174.706 145.297C174.173 144.019 174.188 143.829 174.936 142.562C175.378 141.812 176.035 141.199 176.396 141.199C176.756 141.199 177.637 140.767 178.353 140.239C179.068 139.711 180.041 139.279 180.515 139.279C182.527 139.279 183.99 138.102 183.516 136.865C183.348 136.429 179.537 135.055 178.497 135.055C177.824 135.055 176.432 133.318 176.432 132.479C176.432 131.687 175.759 131.214 174.632 131.214C174.31 131.214 173.178 130.523 172.117 129.678C171.055 128.833 169.775 128.142 169.272 128.142C168.279 128.142 167.106 127.579 165.821 126.486C165.094 125.868 165.025 125.504 165.199 123.221C165.307 121.808 165.54 120.468 165.717 120.243C166.137 119.71 165.555 116.052 164.93 115.299C164.573 114.869 164.549 114.421 164.839 113.588C165.056 112.968 165.16 112.389 165.072 112.3C164.984 112.212 164.76 111.377 164.575 110.444C164.389 109.51 164.111 108.444 163.957 108.075C163.753 107.585 163.858 107.403 164.345 107.403C164.712 107.403 165.556 106.841 166.219 106.155C166.883 105.468 168.061 104.582 168.837 104.185C171.698 102.721 172.725 100.49 170.538 100.49C169.448 100.49 167.599 98.3028 167.599 97.0141C167.599 96.3293 167.441 96.2197 166.735 96.4162C166.03 96.6126 165.505 96.2504 163.879 94.4447C161.888 92.2353 161.883 92.2326 159.661 92.2326H157.437L156.588 90.5044C156.121 89.5539 155.729 88.4198 155.716 87.9843C155.696 87.2338 157.172 85.8403 158.958 84.9267C159.381 84.7106 159.781 84.0625 159.848 83.4865C159.933 82.7546 160.19 82.4393 160.702 82.4393C161.128 82.4393 161.685 81.9565 162.031 81.2871C162.455 80.4657 162.907 80.135 163.602 80.135C164.139 80.135 164.913 79.9555 165.323 79.736C165.875 79.4407 166.562 79.5123 167.967 80.0113C170.085 80.7636 170.758 80.5234 169.727 79.3835C168.476 78.0016 169.875 76.704 171.193 78.0227C171.869 78.6984 172.325 78.7387 173.365 78.2147C173.785 78.0035 174.472 77.6578 174.891 77.4466C175.311 77.2354 176.205 77.0625 176.877 77.0625C177.55 77.0625 178.418 76.7748 178.807 76.4233C179.469 75.8241 179.569 75.8363 180.402 76.6188C180.89 77.078 181.397 77.3465 181.528 77.2155C181.659 77.0846 182.8 76.9063 184.064 76.8194C186.08 76.6806 186.39 76.7526 186.598 77.4098C186.729 77.8215 187.843 79.1783 189.075 80.4249C190.306 81.6715 191.514 83.0668 191.76 83.5255C192.005 83.9842 192.438 84.3596 192.721 84.3596C193.005 84.3596 193.451 84.6175 193.713 84.9329C193.974 85.2482 194.86 85.6869 195.68 85.9078C196.5 86.1287 197.172 86.4585 197.172 86.6407C197.172 86.8229 197.776 87.3289 198.516 87.7651C199.656 88.438 199.86 88.7678 199.86 89.9406C199.86 92.2033 200.398 92.8087 202.408 92.8087C204.634 92.8087 206.712 93.7766 207.007 94.951C207.403 96.5302 207.964 96.6974 210.964 96.1303C213.121 95.7223 213.996 95.3473 214.955 94.4195C216.352 93.0671 219.675 91.9954 222.787 91.8938C224.26 91.8456 225.021 91.605 225.692 90.9745C226.798 89.9352 227.686 89.8862 228.354 90.8275C229.025 91.7736 230.315 92.4247 231.518 92.4247C232.084 92.4247 233.115 92.963 233.943 93.6904C234.736 94.3866 235.86 95.2547 236.441 95.6195C237.825 96.4891 237.86 98.5178 236.527 100.682C235.942 101.632 235.578 102.804 235.573 103.754C235.563 105.877 234.838 107.118 233.364 107.541C232.68 107.737 232.12 108.122 232.12 108.397C232.12 108.671 231.595 109.206 230.952 109.585C230.31 109.965 229.682 110.709 229.557 111.239C229.266 112.472 227.469 115.369 226.833 115.632C226.565 115.742 225.657 115.473 224.814 115.034C223.972 114.595 223.024 114.334 222.708 114.456C221.953 114.746 221.962 116.236 222.718 116.236C223.04 116.236 223.498 116.664 223.736 117.188C224.107 118.001 224.022 118.354 223.152 119.609C222.592 120.417 222.134 121.448 222.134 121.9C222.134 123.006 223.533 123.917 225.232 123.917C227.18 123.917 228.034 124.908 227.441 126.48C227.057 127.496 227.111 127.809 227.854 128.852C228.362 129.566 228.738 130.711 228.782 131.677C228.847 133.125 228.752 133.323 227.895 133.506C226.786 133.742 225.079 134.786 223.597 136.134C222.316 137.3 221.592 137.059 220.701 135.167C220.245 134.198 219.76 133.71 219.251 133.71C217.689 133.71 218.314 138.91 220.022 140.129C220.233 140.28 220.449 141.231 220.502 142.242C220.888 149.595 220.992 149.935 222.341 148.25L223.219 147.152L224.279 147.94C224.862 148.373 225.465 148.978 225.618 149.284C225.772 149.59 226.303 150.661 226.799 151.664C227.635 153.355 227.786 153.472 228.861 153.271C229.684 153.116 230.716 153.382 232.417 154.186C235.391 155.593 235.957 156.056 235.969 157.089C235.979 158.05 238.091 159.25 239.772 159.25C240.496 159.25 241.064 159.556 241.458 160.157C241.785 160.656 242.56 161.165 243.181 161.289C244.563 161.566 245.161 163.067 244.128 163.666C243.763 163.878 242.931 164.612 242.278 165.299C241.625 165.985 240.796 166.547 240.436 166.547C240.076 166.547 239.615 166.983 239.413 167.517C239.21 168.05 238.784 168.587 238.466 168.708C238.149 168.83 237.707 169.604 237.485 170.427C237.264 171.25 236.894 171.924 236.664 171.924C236.394 171.924 236.329 172.446 236.481 173.394C236.641 174.397 236.538 175.1 236.158 175.603C235.851 176.008 235.595 176.72 235.588 177.185C235.582 177.65 235.292 178.189 234.944 178.384C234.366 178.707 234.374 178.818 235.038 179.699C235.438 180.228 236.282 181.029 236.915 181.479L238.066 182.296L238.676 181.488C239.246 180.732 239.327 180.722 239.93 181.325C240.284 181.679 240.751 182.301 240.969 182.707C241.19 183.121 241.769 183.445 242.288 183.445C242.796 183.445 243.319 183.618 243.449 183.829C243.58 184.04 244.011 184.213 244.409 184.213C245.089 184.213 247.645 186.087 249.786 188.155C250.314 188.665 251.175 189.31 251.698 189.589C252.222 189.867 252.887 190.332 253.176 190.621C253.523 190.968 254.133 191.066 254.968 190.909C256.326 190.655 257.481 191.095 258.94 192.422C259.633 193.053 260.331 193.239 262.012 193.239H264.188L264.38 194.572C264.58 195.964 264.574 195.961 267.836 196.182C268.153 196.203 268.685 196.457 269.018 196.745C269.54 197.198 269.751 197.134 270.549 196.285C271.291 195.496 271.713 195.344 272.671 195.524C273.401 195.661 274.301 195.522 274.98 195.168C276.545 194.352 278.333 194.43 279.166 195.351C279.597 195.827 280.349 196.119 281.146 196.119C282.612 196.119 283.966 197.237 283.966 198.448C283.966 199.892 284.704 200.656 286.747 201.331C287.858 201.697 289.135 202.236 289.584 202.528C290.228 202.946 290.608 202.964 291.38 202.612C292.756 201.985 294.035 202.418 294.842 203.784C295.564 205.007 296.201 205.238 296.906 204.533C297.21 204.229 297.554 204.235 298.15 204.554C298.603 204.796 299.327 204.882 299.76 204.745C300.275 204.582 300.833 204.756 301.378 205.25C302.604 206.364 305.248 206.606 306.085 205.68C306.952 204.723 307.492 204.761 308.815 205.875C309.81 206.711 310.162 206.778 312.589 206.592C314.062 206.48 315.581 206.225 315.965 206.026C316.452 205.775 316.934 205.843 317.561 206.254C318.633 206.956 318.724 206.807 319.109 203.725C319.33 201.959 319.233 201.334 318.518 199.933C317.831 198.587 317.676 197.687 317.729 195.367C317.771 193.587 318.011 192.149 318.356 191.623C319.002 190.637 319.088 189.358 318.531 189.014C318.32 188.883 318.147 188.464 318.147 188.081C318.147 187.584 318.531 187.324 319.497 187.167C320.24 187.047 321.3 186.592 321.853 186.157C324.718 183.903 328.515 187.402 326.802 190.716C326.275 191.734 326.263 192.038 326.713 192.897C327.12 193.675 327.144 194.24 326.82 195.455C326.483 196.718 326.506 197.049 326.938 197.193C327.232 197.291 328.117 197.954 328.905 198.665C330.474 200.083 331.243 200.263 331.973 199.383C332.625 198.597 332.807 198.638 334.469 199.959C336.089 201.247 337.014 201.402 337.754 200.511C338.05 200.154 338.584 199.993 339.07 200.115C339.598 200.248 340.116 200.052 340.535 199.564C340.891 199.148 341.429 198.807 341.73 198.807C342.032 198.807 342.356 198.591 342.45 198.327C342.578 197.972 343.062 198.065 344.307 198.682C346.897 199.966 347.463 200.029 349.288 199.229C350.221 198.821 351.847 198.371 352.903 198.23C353.96 198.089 355.522 197.719 356.375 197.409C357.564 196.976 358.182 196.941 359.019 197.26L360.112 197.675L359.873 196.225C359.741 195.427 359.631 194.139 359.629 193.362C359.622 191.513 358.865 190.821 356.503 190.507C354.351 190.222 354.389 190.275 354.115 187.19C353.902 184.786 354.313 184.36 355.503 185.749C356.27 186.646 357.865 186.728 359.24 185.941C359.768 185.64 360.81 185.386 361.555 185.379C363.445 185.36 364.617 184.447 364.617 182.994C364.617 181.331 366.619 179.141 368.618 178.618C370.006 178.254 370.173 178.089 370.076 177.181C370.011 176.574 370.321 175.674 370.836 174.977C371.542 174.023 371.943 173.82 372.954 173.908C373.64 173.967 374.412 173.804 374.67 173.545C374.929 173.287 375.53 173.076 376.007 173.076C376.632 173.076 377.281 172.472 378.331 170.915C379.963 168.493 383.913 164.242 384.531 164.242C384.752 164.242 385.072 164.482 385.241 164.776C385.671 165.523 391.035 167.322 391.875 167.001C392.252 166.857 393.143 165.978 393.855 165.047C394.567 164.117 395.978 162.907 396.992 162.359L398.834 161.362L399.694 162.418C400.169 163.001 400.941 163.474 401.417 163.474C402.833 163.474 402.892 164.579 401.543 165.84C400.411 166.898 400.001 167.699 400.592 167.699C400.733 167.699 401.174 167.405 401.571 167.046C402.26 166.423 402.362 166.471 403.793 168.102C404.619 169.042 405.301 169.993 405.31 170.216C405.322 170.439 404.722 171.207 403.982 171.923C403.243 172.64 402.638 173.362 402.638 173.528C402.638 173.693 403.39 173.726 404.309 173.6C405.383 173.453 406.309 173.554 406.901 173.883C407.408 174.165 408.341 174.41 408.975 174.427C413.073 174.539 413.073 174.539 412.962 175.668C412.906 176.249 413.075 177.119 413.339 177.603C414.006 178.825 413.655 179.617 411.458 181.849C410.409 182.914 409.551 183.963 409.551 184.179C409.551 184.395 410.329 185.447 411.28 186.517C412.23 187.588 413.008 188.596 413.008 188.758C413.008 189.422 412.009 189.974 410.806 189.974C409.75 189.974 409.387 189.739 408.732 188.63C407.919 187.251 407.472 186.995 407.055 187.67C406.924 187.881 406.38 188.054 405.845 188.054C405.31 188.054 404.432 188.399 403.895 188.822C403.358 189.244 402.685 189.59 402.399 189.59C402.114 189.59 401.466 190.238 400.96 191.03C400.455 191.822 399.156 193.289 398.075 194.289C396.994 195.289 396.109 196.345 396.109 196.637C396.109 196.928 395.333 197.463 394.383 197.826C392.213 198.655 391.817 199.32 392.51 200.977C392.803 201.679 393.066 203.076 393.093 204.083C393.203 208.076 392.126 211.203 389.714 213.891C388.652 215.074 388.485 215.477 388.806 216.078C389.023 216.483 389.372 216.921 389.583 217.051C390.277 217.48 390.017 220.528 389.197 221.571C388.774 222.108 388.428 222.974 388.428 223.496C388.428 224.018 388.181 224.65 387.878 224.902C387.321 225.364 386.599 227.78 386.243 230.37C385.985 232.248 384.835 233.327 383.789 232.674C383.272 232.351 382.814 232.32 382.334 232.577C381.833 232.845 381.394 232.783 380.79 232.36C380.026 231.825 379.853 231.83 378.953 232.42C378.018 233.032 377.972 233.208 378.172 235.413C378.289 236.702 378.235 238.035 378.053 238.376C377.844 238.767 377.955 239.646 378.353 240.754C379.193 243.089 378.67 244.403 376.831 244.58L375.562 244.701L375.636 246.893C375.676 248.098 375.925 249.481 376.188 249.965C376.886 251.249 376.957 256.028 376.293 257.074C375.997 257.541 375.754 258.352 375.754 258.875C375.754 260.179 375.255 260.378 373.661 259.712C372.397 259.184 372.275 259.195 371.91 259.878C371.302 261.014 370.471 260.371 370.253 258.596C369.284 250.721 369.068 249.633 368.223 248.381C367.519 247.337 367.382 246.74 367.556 245.473C367.719 244.287 367.566 243.471 366.964 242.289C366.518 241.415 366.153 240.341 366.153 239.903C366.153 238.665 365.015 237.212 364.047 237.212C363.325 237.212 363.147 237.472 362.971 238.778C362.856 239.64 362.482 240.653 362.14 241.031C361.686 241.533 361.582 242.12 361.754 243.21C362.087 245.323 361.475 246.68 360.097 246.883C358.47 247.121 358.14 246.908 357.865 245.442C357.581 243.927 357.133 243.74 356.782 244.989C356.544 245.836 356.527 245.838 355.969 245.108C355.656 244.698 355.399 243.994 355.399 243.544C355.399 243.094 354.876 241.76 354.237 240.58C353.098 238.477 353.086 238.4 353.655 236.767C353.975 235.85 354.238 234.637 354.241 234.071C354.248 232.887 355.142 231.836 356.142 231.836C356.52 231.836 357.495 231.307 358.309 230.66C359.129 230.009 360.083 229.562 360.449 229.658C361.173 229.847 361.544 229.208 361.544 227.772C361.544 227.099 361.756 226.843 362.312 226.843C362.889 226.843 363.08 226.587 363.08 225.817C363.08 225.253 363.351 224.492 363.683 224.126C364.192 223.562 364.207 223.333 363.779 222.63C363.331 221.896 363.375 221.716 364.16 221.072L365.048 220.344L363.633 219.753C361.841 219.004 359.774 218.984 359.495 219.713C359.322 220.164 358.255 220.243 353.597 220.152C349.113 220.064 347.729 220.158 347.053 220.601C346.345 221.064 345.869 221.084 344.335 220.716C343.312 220.47 342.315 220.3 342.12 220.337C341.925 220.375 341.679 220.371 341.573 220.329C341.468 220.287 340.615 220.05 339.678 219.803C338.279 219.434 337.92 219.152 337.675 218.225C337.493 217.536 337.538 216.901 337.791 216.596C338.031 216.306 338.096 215.571 337.946 214.845C337.804 214.156 337.7 212.968 337.716 212.204C337.757 210.19 336.914 209.646 335.673 210.887C335.135 211.425 334.424 211.865 334.093 211.865C333.762 211.865 332.552 210.88 331.405 209.676C329.79 207.982 329.265 207.625 329.084 208.097C328.939 208.477 328.567 208.633 328.101 208.512C327.558 208.37 327.411 208.47 327.567 208.877C327.686 209.185 327.547 209.633 327.259 209.872C326.6 210.419 325.066 209.456 325.046 208.483C325.039 208.125 324.785 207.4 324.483 206.872C323.943 205.927 323.934 205.926 323.921 206.773C323.911 207.325 323.427 207.944 322.568 208.501C321.714 209.054 321.227 209.674 321.224 210.21C321.221 210.673 321.046 211.158 320.835 211.289C320.041 211.779 320.505 212.597 322.178 213.654C323.128 214.254 323.906 214.863 323.907 215.006C323.909 215.809 325.219 216.478 326.367 216.263C327.427 216.064 327.661 216.17 328.049 217.021C328.297 217.565 328.751 218.01 329.058 218.01C329.831 218.01 330.148 219.243 329.687 220.455C329.414 221.174 329.026 221.466 328.346 221.466C326.616 221.466 324.685 222.664 324.357 223.942C324.18 224.634 323.56 225.429 322.844 225.883C322.011 226.411 321.628 226.958 321.618 227.635C321.591 229.375 323.078 230.436 326.649 231.222C327.788 231.472 327.962 231.783 328.328 234.225C328.555 235.736 328.465 236.075 327.591 237.019C326.282 238.43 326.271 239.805 327.567 240.13C328.847 240.451 329.376 241.524 329.067 243.171C328.849 244.335 328.915 244.509 329.58 244.509C330.863 244.509 331.424 245.528 330.902 246.911C330.582 247.76 330.572 248.241 330.866 248.595C331.108 248.887 331.174 249.703 331.027 250.575C330.84 251.68 330.929 252.186 331.375 252.556C331.762 252.877 331.973 253.692 331.973 254.866C331.973 256.219 332.178 256.865 332.777 257.407C333.369 257.943 333.529 258.439 333.387 259.291C332.999 261.604 332.427 262.56 331.43 262.56C330.909 262.56 330.376 262.387 330.245 262.176C329.846 261.53 329.29 261.745 328.848 262.715C328.575 263.315 328.006 263.708 327.224 263.836C326.562 263.945 325.681 264.091 325.266 264.161C324.688 264.258 324.462 264.018 324.302 263.136C324.043 261.71 323.489 261.678 322.831 263.051C322.556 263.626 322.171 264.096 321.977 264.096C321.783 264.096 321.365 264.596 321.049 265.207C320.609 266.059 320.137 266.362 319.023 266.507C316.52 266.833 314.399 267.861 312.522 269.66L310.709 271.397L311.604 272.607C312.914 274.38 312.995 276.596 311.806 278.155C311.28 278.843 310.851 279.754 310.851 280.179C310.851 281.517 306.722 285.977 304.546 286.991C303.472 287.491 302.361 287.901 302.077 287.904C301.792 287.906 301.101 288.233 300.541 288.631C299.489 289.379 296.805 290.596 296.21 290.596C296.024 290.596 295.873 290.26 295.873 289.85C295.873 288.8 295.188 288.501 294.108 289.079C292.946 289.701 292.916 290.504 294.048 290.665C294.524 290.732 294.913 290.984 294.913 291.225C294.913 291.465 293.616 292.822 292.032 294.241C290.448 295.66 288.845 297.447 288.471 298.212C288.096 298.977 287.291 300.125 286.682 300.764C286.073 301.403 284.818 303.049 283.895 304.422C282.421 306.612 281.848 307.107 279.214 308.461C275.805 310.215 275.134 310.93 275.134 312.811C275.134 313.878 274.819 314.432 273.54 315.612C272.664 316.421 271.021 317.429 269.889 317.853C268.757 318.276 266.726 319.491 265.375 320.553L262.918 322.484L263.125 324.77C263.371 327.477 262.802 328.631 260.858 329.367C260.155 329.633 258.77 330.177 257.78 330.578C255.565 331.473 254.098 331.503 253.177 330.67C252.522 330.077 252.423 330.081 251.707 330.729C251.284 331.112 250.939 331.688 250.939 332.009C250.939 332.923 246.993 338.564 246.162 338.838C245.658 339.004 245.203 338.818 244.756 338.267C243.422 336.619 239.94 337.782 238.9 340.223C238.605 340.916 237.909 341.902 237.354 342.414C236.105 343.566 236.012 345.581 237.066 348.645C238.309 352.258 238.414 353.671 237.523 354.803L236.74 355.799L238.098 358.403C238.886 359.915 239.407 361.423 239.34 361.998C239.241 362.851 239.063 362.973 238.073 362.868L236.92 362.748L238.617 364.485C240.092 365.995 240.312 366.437 240.309 367.87C240.306 369.834 238.683 373.26 237.342 374.138C236.527 374.672 236.472 374.864 236.844 375.849C237.233 376.88 237.137 377.093 235.516 378.827C233.5 380.982 232.851 383.117 233.092 386.801C233.629 395.008 234.099 399.586 234.483 400.326C235.21 401.729 234.341 402.355 231.664 402.355C230.408 402.355 229.035 402.17 228.612 401.944C227.4 401.295 225.827 402.483 226.158 403.799C226.349 404.562 226.178 405.03 225.435 405.784C223.414 407.836 222.134 409.587 222.134 410.303C222.134 410.711 222.653 411.542 223.287 412.149C224.796 413.595 224.819 414.884 223.34 415.209C222.736 415.342 221.541 415.41 220.683 415.359C219.824 415.308 218.851 415.494 218.514 415.774C218.13 416.092 217.403 416.199 216.557 416.062C215.516 415.893 214.988 416.035 214.234 416.684C213.408 417.395 213.213 417.984 212.974 420.486C212.819 422.115 212.613 423.526 212.516 423.622C212.42 423.717 211.133 424.436 209.657 425.219C208.18 426.002 206.745 426.967 206.467 427.364C205.735 428.408 202.545 428.376 201.585 427.316ZM104.949 239.171C105.239 238.987 105.407 238.629 105.322 238.375C105.217 238.06 104.864 238.165 104.219 238.702C103.569 239.242 103.452 239.493 103.846 239.498C104.163 239.502 104.659 239.355 104.949 239.171ZM394.804 426.653C394.343 426.192 394.562 424.56 395.054 424.79C395.318 424.913 395.837 425.12 396.206 425.251C396.576 425.381 396.878 425.613 396.878 425.765C396.878 426.16 395.081 426.929 394.804 426.653ZM145.588 423.998C145.096 423.506 145.32 422.409 145.964 422.162C146.875 421.813 147.527 422.56 147.016 423.37C146.546 424.115 145.962 424.372 145.588 423.998ZM392.283 421.583C391.69 420.475 391.798 420.021 392.654 420.021C393.248 420.021 393.422 419.765 393.422 418.892C393.422 417.527 394.133 416.978 394.77 417.85C395.026 418.2 395.388 418.485 395.576 418.485C395.765 418.485 395.897 419.047 395.872 419.733C395.832 420.833 395.707 420.973 394.816 420.909C394.048 420.854 393.806 421.015 393.806 421.581C393.806 422.543 392.798 422.544 392.283 421.583ZM144.384 418.135C144.242 417.905 143.801 417.717 143.404 417.717C142.308 417.717 142.069 416.96 142.902 416.127C143.821 415.209 144.857 415.527 145.184 416.827C145.441 417.855 144.83 418.855 144.384 418.135ZM388.717 417.537C387.99 416.537 387.825 415.413 388.406 415.413C389.075 415.413 391.211 417.64 390.949 418.064C390.513 418.77 389.427 418.513 388.717 417.537ZM394.788 414.943C393.987 413.8 394.034 413.108 394.911 413.108C395.905 413.108 396.506 413.942 396.242 414.953C395.962 416.024 395.543 416.023 394.788 414.943ZM385.609 412.081C385.471 411.942 385.357 411.703 385.357 411.549C385.357 411.119 386.459 410.797 386.684 411.161C386.939 411.573 385.948 412.42 385.609 412.081ZM383.242 408.496C382.9 407.943 383.368 406.688 384.008 406.442C384.307 406.328 384.948 406.571 385.434 406.983C386.301 407.718 386.304 407.741 385.571 408.307C384.714 408.97 383.592 409.061 383.242 408.496ZM153.251 404.748C153.136 404.561 153.14 404.033 153.261 403.574C153.617 402.212 155.492 402.596 155.752 404.083C155.86 404.699 155.647 404.874 154.674 404.969C154.008 405.034 153.367 404.931 153.251 404.748ZM137.327 403.295C137.5 402.461 138.182 402.409 138.338 403.219C138.419 403.64 138.23 403.891 137.835 403.891C137.466 403.891 137.254 403.643 137.327 403.295ZM138.454 401.868C137.172 401.206 137.241 400.647 138.622 400.512C139.524 400.424 139.894 400.13 140.233 399.232C140.538 398.423 140.885 398.107 141.366 398.199C141.9 398.301 142.078 398.74 142.142 400.115C142.231 402.026 141.554 402.79 140.693 401.752C140.289 401.265 140.175 401.267 139.8 401.771C139.446 402.244 139.211 402.259 138.454 401.868ZM142.397 397.189C142.1 396.413 142.542 395.826 143.426 395.826C144.262 395.826 144.41 396.586 143.711 397.285C143.097 397.899 142.658 397.867 142.397 397.189ZM155.04 395.737C154.434 395.078 154.32 394.656 154.57 394.002C154.95 393.009 155.614 392.906 156.667 393.676C157.274 394.12 157.338 394.403 157.029 395.277C156.534 396.677 156.014 396.797 155.04 395.737ZM136.467 394.246C135.971 393.319 136.245 392.37 137.008 392.37C137.78 392.37 138.464 393.319 138.196 394.019C137.827 394.979 136.923 395.098 136.467 394.246ZM141.498 394.499C141.231 394.178 141.115 393.65 141.24 393.326C141.429 392.832 141.594 392.816 142.252 393.225C143.062 393.729 143.149 394.695 142.405 394.943C142.173 395.02 141.765 394.82 141.498 394.499ZM139.051 392.497C138.618 392.065 138.767 391.217 139.275 391.223C139.539 391.226 140.014 391.399 140.331 391.607C140.843 391.943 140.843 392.027 140.331 392.364C139.646 392.813 139.393 392.84 139.051 392.497ZM378.54 392.11C377.878 391.649 377.676 391.132 377.676 389.903C377.676 389.021 377.883 388.091 378.137 387.838C379.565 386.409 381.227 388.427 380.863 391.146C380.625 392.918 380.044 393.159 378.54 392.11ZM143.788 391.217C143.788 390.639 143.988 390.432 144.46 390.522C144.829 390.593 145.132 390.906 145.132 391.217C145.132 391.528 144.829 391.841 144.46 391.912C143.988 392.003 143.788 391.796 143.788 391.217ZM135.735 389.613C135.307 388.911 134.957 388.202 134.956 388.037C134.953 387.476 136.044 387.316 136.867 387.757C137.485 388.088 137.658 388.49 137.569 389.389C137.405 391.039 136.66 391.13 135.735 389.613ZM144.38 389.164C143.561 388.566 143.806 387.377 144.748 387.377C145.507 387.377 145.876 388.296 145.435 389.086C145.145 389.603 144.995 389.614 144.38 389.164ZM147.244 386.828C147.244 385.789 148.249 384.574 148.921 384.801C149.323 384.936 149.316 386.81 148.911 387.473C148.814 387.631 148.4 387.761 147.99 387.761C147.456 387.761 147.244 387.496 147.244 386.828ZM375.257 387.134C374.652 386.53 375.011 385.791 375.851 385.91C376.327 385.978 376.716 386.29 376.716 386.604C376.716 387.214 375.704 387.582 375.257 387.134ZM380.751 386.619C380.306 386.338 380.281 386.154 380.639 385.796C380.997 385.438 381.232 385.445 381.692 385.827C382.84 386.779 382.053 387.442 380.751 386.619ZM137.259 385.296C137.259 384.997 137.154 384.478 137.026 384.144C136.733 383.38 137.611 383.34 138.611 384.071C139.232 384.525 139.265 384.698 138.829 385.223C138.196 385.987 137.259 386.03 137.259 385.296ZM380.986 383.859C380.702 382.441 380.851 382.194 381.777 382.55C382.359 382.773 382.375 382.865 381.89 383.202C381.462 383.499 381.441 383.642 381.804 383.79C382.454 384.054 382.416 385.073 381.756 385.073C381.466 385.073 381.119 384.527 380.986 383.859ZM143.788 383.729C143.788 383.411 144.047 383.152 144.364 383.152C144.681 383.152 144.94 383.412 144.94 383.729C144.94 384.046 144.68 384.305 144.364 384.305C144.047 384.305 143.788 384.045 143.788 383.729ZM378.656 382.033C378.532 381.833 378.595 381.568 378.795 381.444C378.995 381.321 379.26 381.384 379.383 381.583C379.507 381.783 379.444 382.048 379.245 382.172C379.044 382.296 378.78 382.233 378.656 382.033ZM132.084 381.38C131.372 380.667 131.46 380.117 132.38 379.537C133.199 379.02 134.801 380.461 134.444 381.392C134.142 382.179 132.877 382.175 132.084 381.38ZM380.361 381.42C379.966 380.944 380.023 380.848 380.701 380.848C381.149 380.848 381.516 381.01 381.516 381.209C381.516 381.875 380.84 381.998 380.361 381.42ZM374.863 380.211C374.459 379.807 375.394 378.928 376.228 378.928C376.765 378.928 376.921 379.107 376.757 379.535C376.628 379.869 376.524 380.215 376.524 380.303C376.524 380.564 375.138 380.487 374.863 380.211ZM380.344 379.812C379.496 379.68 379.302 379.368 378.913 377.517C378.503 375.558 378.531 375.289 379.244 374.383C379.761 373.725 379.946 373.085 379.794 372.479C379.619 371.783 379.745 371.52 380.322 371.369C380.738 371.26 381.176 370.918 381.295 370.608C381.414 370.299 381.685 370.153 381.898 370.285C382.495 370.654 382.355 372.396 381.708 372.644C381.009 372.913 380.95 374.368 381.612 375.03C382.202 375.619 382.303 380.106 381.725 380.023C381.505 379.992 380.883 379.896 380.344 379.812ZM134.2 377.417C133.981 377.008 133.802 376.477 133.802 376.237C133.802 375.709 134.759 374.703 135.261 374.703C135.668 374.703 136.186 377.335 135.877 377.835C135.523 378.409 134.609 378.181 134.2 377.417ZM385.13 376.863C384.991 376.502 384.989 376.095 385.122 375.96C385.258 375.825 385.573 375.919 385.823 376.169C386.169 376.515 386.17 376.73 385.83 377.072C385.489 377.413 385.322 377.363 385.13 376.863ZM383.906 374.873C383.34 374.477 383.052 373.879 383.052 373.098C383.052 372.073 383.13 371.985 383.654 372.42C384.216 372.886 385.357 374.789 385.357 375.26C385.357 375.638 384.777 375.484 383.906 374.873ZM384.589 372.046C384.589 371.852 384.484 371.42 384.356 371.086C384.205 370.693 384.333 370.478 384.717 370.478C385.482 370.478 385.806 371.014 385.509 371.788C385.258 372.443 384.589 372.631 384.589 372.046ZM382.881 370.895C382.757 370.695 382.82 370.43 383.019 370.307C383.219 370.183 383.484 370.246 383.608 370.446C383.732 370.646 383.669 370.911 383.469 371.034C383.269 371.158 383.004 371.095 382.881 370.895ZM379.69 368.799C379.406 367.734 379.398 367.008 379.664 366.511C379.954 365.969 379.876 365.453 379.362 364.497C378.519 362.933 378.907 362.339 379.943 363.607C380.517 364.31 380.801 364.42 381.15 364.077C381.501 363.732 381.374 363.378 380.596 362.541C379.704 361.58 379.656 361.401 380.188 361.011C380.628 360.688 380.768 360.007 380.706 358.484C380.604 355.962 380.848 355.5 382.281 355.5C383.536 355.5 384.002 356.372 383.601 357.969C383.452 358.564 383.547 359.204 383.838 359.554C384.245 360.045 384.122 360.35 383.081 361.424C382.094 362.442 381.913 362.855 382.206 363.424C383.765 366.46 383.53 368.155 381.356 369.555L380.107 370.359L379.69 368.799ZM392.27 369.991C392.27 369.41 394.14 368.38 394.514 368.754C394.638 368.878 394.554 369.273 394.329 369.633C393.808 370.465 392.27 370.732 392.27 369.991ZM396.112 355.887C395.636 354.998 395.888 354.348 396.709 354.348C397.04 354.348 397.262 354.725 397.262 355.286C397.262 356.536 396.635 356.865 396.112 355.887ZM384.071 352.138C383.797 351.694 384.25 349.74 384.626 349.74C385.068 349.74 385.496 351.508 385.178 352.022C384.886 352.495 384.328 352.554 384.071 352.138ZM385.818 349.663C385.267 349.112 385.198 347.051 385.731 347.051C386.245 347.051 387.363 349.29 387.078 349.751C386.771 350.248 386.376 350.221 385.818 349.663ZM387.853 339.754C387.499 339.181 387.992 338.602 388.836 338.602C389.73 338.602 389.833 339.576 388.974 339.905C388.177 340.211 388.132 340.205 387.853 339.754ZM324.432 267.747C324.283 267.359 323.915 267.248 323.292 267.405C322.562 267.588 322.372 267.484 322.372 266.903C322.372 266.156 323.046 265.248 323.601 265.248C323.77 265.248 323.911 265.55 323.914 265.92C323.917 266.42 324.001 266.465 324.236 266.094C324.488 265.696 324.653 265.717 325.049 266.194C325.497 266.734 325.591 266.731 326.013 266.154C326.35 265.693 326.557 265.642 326.76 265.969C326.918 266.225 326.651 266.833 326.146 267.365C325.109 268.459 324.737 268.542 324.432 267.747ZM327.365 267.008C327.365 266.363 327.576 266.016 327.968 266.016C328.368 266.016 328.529 266.296 328.448 266.85C328.267 268.08 327.365 268.211 327.365 267.008ZM329.523 266.627C328.535 264.794 329.267 263.748 330.602 265.083C331.15 265.632 331.205 265.619 331.205 264.938C331.205 264.115 332.088 263.186 332.489 263.587C332.628 263.726 332.742 264.136 332.742 264.497C332.742 264.858 333.001 265.369 333.318 265.632C333.634 265.895 333.894 266.262 333.894 266.447C333.894 266.965 332.058 266.847 331.724 266.308C331.525 265.985 331.36 266.13 331.211 266.76C330.885 268.143 330.315 268.098 329.523 266.627ZM325.061 265.248C325.061 265.037 325.234 264.864 325.445 264.864C325.656 264.864 325.829 265.037 325.829 265.248C325.829 265.459 325.656 265.632 325.445 265.632C325.233 265.632 325.061 265.459 325.061 265.248ZM327.365 264.864C327.365 264.653 327.538 264.48 327.749 264.48C327.96 264.48 328.133 264.653 328.133 264.864C328.133 265.075 327.96 265.248 327.749 265.248C327.538 265.248 327.365 265.075 327.365 264.864ZM329.861 263.712C329.992 263.501 330.175 263.328 330.268 263.328C330.361 263.328 330.437 263.501 330.437 263.712C330.437 263.923 330.254 264.096 330.031 264.096C329.807 264.096 329.73 263.923 329.861 263.712Z" fill="black"/>
</svg>
