<svg width="512" height="512" viewBox="0 0 512 512" fill="none" xmlns="http://www.w3.org/2000/svg">
<path d="M81 398.705V393.622H89.1624H97.3247V365.636C97.3247 342.782 97.5083 337.336 98.326 335.935C99.8289 333.36 103.164 330.778 105.891 330.078C107.236 329.732 117.648 329.461 129.26 329.469C152.926 329.483 154.204 329.697 158.093 334.259L160.139 336.661L160.338 365.141L160.536 393.622H169.033H177.529V379.056V364.49L179.399 363.173C181.991 361.348 184.361 361.521 186.811 363.713L188.885 365.57V379.596V393.622H209.114H229.342V349.535C229.342 309.92 229.228 305.41 228.22 305.063C226.57 304.497 190.81 304.612 189.799 305.187C189.158 305.551 188.887 311.394 188.735 328.105L188.53 350.534L186.855 351.748C184.642 353.351 181.046 353.304 179.058 351.646L177.481 350.331L177.682 326.024L177.884 301.718L179.872 299.385C183.632 294.974 184.213 294.865 205.21 294.619C215.555 294.498 226.004 294.589 228.43 294.822C233.694 295.326 236.835 297.02 239.079 300.567L240.675 303.089L240.687 348.356L240.699 393.622H249.216H257.733V330.94V268.258L259.438 265.654C260.391 264.2 262.391 262.423 263.971 261.628C266.736 260.237 267.298 260.206 289.415 260.216C311.561 260.226 312.09 260.256 314.856 261.658C316.439 262.461 318.383 264.201 319.28 265.618L320.88 268.147L320.892 330.884L320.903 393.622H329.421H337.938V313.869C337.938 226.677 337.696 231.609 342.132 228.268C345.972 225.376 348.06 225.17 371.351 225.382L393.052 225.581L395.623 227.158C397.036 228.026 398.849 229.78 399.65 231.056C401.057 233.298 401.108 234.318 401.108 260.722V288.067L399.237 289.384C396.778 291.116 394.54 291.048 392.098 289.168L390.106 287.635L389.751 261.691L389.396 235.746H369.523H349.649L349.469 314.684L349.288 393.622H369.52H389.751V349.245C389.751 303.453 389.863 301.537 392.618 300.217C394.761 299.191 398.165 299.503 399.688 300.866C401.081 302.113 401.107 302.983 401.107 347.879V393.622H414.459C426.915 393.622 427.915 393.709 429.364 394.917C431.674 396.843 431.51 400.736 429.047 402.47L427.177 403.787H254.088H81V398.705ZM148.968 366.78L148.783 339.938H128.91H109.036L108.851 366.78L108.666 393.622H128.91H149.153L148.968 366.78ZM309.546 331.996V270.37H289.318H269.089V331.996V393.622H289.318H309.546V331.996ZM117.846 271.464C110.943 267.299 110.372 257.843 116.766 253.58C117.98 252.77 124.083 250.603 130.329 248.763C177.313 234.926 220.251 215.332 251.345 193.541C264.723 184.165 264.206 184.46 266.563 184.867C269.358 185.349 271.219 187.381 271.219 189.952C271.219 192.353 270.685 192.996 265.541 196.789C232.836 220.904 187.602 242.331 137.604 257.39C129.894 259.712 123.586 261.868 123.586 262.18C123.586 262.992 128.275 262.873 138.846 261.791C210.892 254.415 270.961 230.075 315.225 190.325C323.446 182.941 328.289 178.007 338.828 166.277C344.194 160.304 345.269 160.255 353.863 165.588C357.281 167.708 360.226 169.311 360.407 169.149C360.588 168.987 359.519 158.004 358.032 144.742L355.327 120.63L329.42 126.628C315.171 129.928 303.268 132.834 302.967 133.087C302.667 133.34 305.266 135.309 308.741 137.461C317.245 142.727 317.66 143.965 313.15 150.609C307.741 158.578 292.497 175.222 285.942 180.314C281.546 183.73 276.187 181.872 276.187 176.932C276.187 174.619 276.711 173.902 282.084 168.857C292.869 158.731 303.286 146.743 301.993 145.947C282.831 134.161 282.575 133.962 282.575 130.825C282.575 128.415 283.75 126.959 286.296 126.213C290.017 125.123 359.433 109 360.407 109C362.75 109 364.956 110.596 365.601 112.758C365.975 114.01 367.936 129.984 369.959 148.255C374.015 184.887 374.029 183.907 369.447 185.26C366.594 186.103 366.47 186.05 355.796 179.408C351.369 176.653 347.51 174.337 347.22 174.26C346.929 174.183 344.642 176.397 342.137 179.179C304.965 220.468 252.431 249.717 189.95 263.91C167.92 268.914 139.092 272.912 125.036 272.912C121.227 272.912 119.756 272.615 117.846 271.464Z" fill="currentColor"/>
</svg>
