<svg width="512" height="512" viewBox="0 0 512 512" fill="none" xmlns="http://www.w3.org/2000/svg">
<path d="M182.817 461.716C180.954 459.795 179.43 457.589 179.43 456.813C179.43 456.037 178.917 454.865 178.29 454.208C176.307 452.131 174.661 447.679 175.743 447.319C176.805 446.965 176.131 442.892 174.711 441.086C174.24 440.487 174.117 439.572 174.437 439.053C174.758 438.535 174.634 438.111 174.161 438.111C173.233 438.111 171.792 433.855 172.096 432.013C172.199 431.392 171.904 430.884 171.441 430.884C170.977 430.884 170.339 429.503 170.022 427.814C169.266 423.785 166.984 419.201 164.437 416.595C161.989 414.091 157.679 400.819 157.298 394.61C157.148 392.176 156.642 389.688 156.174 389.081C155.705 388.475 154.806 386.074 154.177 383.746C153.547 381.417 152.506 379.311 151.864 379.064C151.221 378.818 150.4 377.267 150.039 375.619C149.679 373.971 148.222 370.222 146.802 367.288C144.876 363.307 144.091 360.098 143.709 354.642C143.057 345.332 142.532 340.609 142.059 339.822C141.099 338.224 140.656 327.91 141.547 327.91C142.072 327.91 142.257 327.514 141.959 327.031C139.953 323.786 139.948 313.215 141.95 310.16C142.792 308.874 143.443 306.346 143.395 304.542C143.255 299.227 142.664 294.142 142.005 292.575C141.568 291.537 141.995 290.934 143.473 290.496L145.557 289.88L143.466 289.03C140.984 288.021 141.601 286.32 144.203 287.001C145.196 287.26 146.009 287.105 146.009 286.656C146.009 285.591 141.382 285.271 139.864 286.231C139.217 286.641 138.53 288.696 138.338 290.8C137.815 296.507 136.112 298.263 128.429 301.013C121.432 303.518 118.902 303.148 113.612 298.845C111.061 296.77 108.974 294.568 108.974 293.952C108.974 293.336 108.612 292.697 108.169 292.531C106.574 291.934 99.9417 282.762 99.9697 281.191C99.9969 279.671 100.063 279.669 101.188 281.151C101.842 282.013 102.553 282.542 102.767 282.328C102.981 282.114 104.898 281.836 107.026 281.711C109.155 281.585 111.097 281.157 111.343 280.759C111.589 280.361 112.478 280.033 113.318 280.03C114.676 280.025 118.91 275.028 118.91 273.431C118.91 273.089 117.894 272.809 116.652 272.809C115.41 272.809 114.394 273.167 114.394 273.603C114.394 274.04 113.276 274.809 111.91 275.313C109.058 276.364 105.361 276.372 105.361 275.326C105.361 274.935 104.915 274.616 104.371 274.616C102.274 274.616 98.0343 270.705 96.7193 267.558C95.4553 264.533 95.47 264.171 96.8985 263.126C99.2505 261.406 97.9508 260.953 95.0231 262.472C92.116 263.98 91.5143 263.795 92.3385 261.648C92.7276 260.634 93.9882 260.164 96.3191 260.164C99.0104 260.164 99.8336 259.768 100.22 258.291C100.658 256.615 101.166 256.48 105.067 256.998C107.464 257.317 110.337 258.023 111.45 258.567C112.936 259.294 114.089 259.277 115.783 258.505C118.896 257.087 121.173 257.182 122.503 258.785C123.464 259.942 123.932 259.948 126.085 258.835C129.242 257.202 129.172 254.124 125.842 248.163C124.513 245.786 123.426 243.042 123.426 242.066C123.426 240.791 122.811 240.291 121.24 240.291C119.539 240.291 118.92 239.682 118.45 237.544C118.091 235.908 118.27 234.288 118.893 233.537C120.204 231.958 118.555 228.395 116.82 229.061C116.183 229.305 114.749 228.534 113.634 227.347C111.869 225.468 111.746 224.883 112.686 222.821C113.279 221.519 114.469 220.23 115.331 219.957C116.192 219.683 118.015 217.846 119.381 215.875C122.28 211.691 124.872 211.223 126.175 214.649C126.896 216.546 127.467 216.889 129.088 216.398C130.197 216.062 132.933 215.547 135.169 215.254C138.291 214.844 139.915 213.978 142.17 211.522C143.784 209.763 145.105 207.801 145.105 207.163C145.105 206.525 146.779 205.15 148.824 204.106C153.447 201.748 156.391 198.399 157.711 193.998C158.495 191.383 159.192 190.611 160.768 190.611C163.21 190.611 164.978 189.036 164.978 186.86C164.978 185.394 169.956 179.861 173.099 177.835C174.127 177.172 174.183 176.839 173.327 176.48C172.703 176.218 172.458 175.575 172.782 175.051C173.106 174.526 173.413 172.641 173.465 170.86C173.546 168.077 173.94 167.509 176.269 166.816C180.666 165.509 181.672 164.791 181.977 162.742C182.165 161.481 181.785 160.802 180.89 160.802C178.22 160.802 174.914 158.693 174.914 156.991C174.914 156.01 174.503 155.53 173.953 155.869C173.425 156.196 172.308 155.88 171.469 155.168C170.631 154.456 168.683 153.375 167.139 152.765L164.333 151.657L164.23 142.788C164.13 134.235 164.21 133.857 166.459 132.23C171.806 128.361 172.368 127.112 169.465 125.559C168.456 125.018 167.744 123.913 167.884 123.103C168.046 122.167 167.315 121.432 165.881 121.088C164.639 120.791 163.221 119.646 162.731 118.544C162.073 117.067 161.065 116.541 158.892 116.541C154.5 116.541 154.998 113.734 160.077 109.856C163.654 107.124 164.529 106.823 166.599 107.61C168.43 108.306 169.21 108.216 169.934 107.225C172.053 104.327 186.656 104.229 186.656 107.112C186.656 107.827 187.136 108.412 187.721 108.412C188.307 108.412 190.062 109.733 191.622 111.347C195.805 115.677 201.278 120.23 203.599 121.309C204.72 121.83 205.533 122.898 205.405 123.682C205.224 124.8 205.856 125.041 208.331 124.798C210.067 124.628 212.64 123.892 214.048 123.164C215.642 122.34 219.495 121.801 224.25 121.736C230.873 121.645 232.143 121.882 233.774 123.513C235.515 125.254 235.574 125.74 234.56 129.966C233.818 133.06 232.907 134.714 231.739 135.085C230.79 135.386 230.014 136.214 230.014 136.926C230.014 137.638 229.599 138.22 229.091 138.22C228.584 138.22 227.706 139.236 227.14 140.478C226.417 142.066 225.395 142.737 223.7 142.737C221.42 142.737 221.284 142.984 221.186 147.294C221.094 151.334 221.331 151.947 223.272 152.685C224.64 153.205 225.277 154.004 224.967 154.811C224.694 155.521 224.905 156.371 225.436 156.699C227.456 157.948 226.407 160.795 223.465 162.046C220.97 163.107 220.379 163.108 219.527 162.048C218.595 160.891 214.658 160.245 214.658 161.25C214.658 161.496 215.495 164.114 216.517 167.068C217.539 170.021 218.288 172.97 218.181 173.62C218.074 174.27 218.301 175.524 218.686 176.406C219.202 177.588 219.69 177.758 220.541 177.051C221.413 176.327 222.181 176.875 223.671 179.286C224.976 181.398 226.328 182.48 227.659 182.48C229.715 182.48 233.627 185.464 233.627 187.032C233.627 187.51 234.11 187.9 234.7 187.9C235.291 187.9 237.058 188.78 238.627 189.855L241.481 191.811L238.485 194.441C236.589 196.106 235.265 198.27 234.877 200.338C234.54 202.134 233.504 204.893 232.575 206.468C231.1 208.966 231.054 209.471 232.211 210.432C232.941 211.037 234.066 211.633 234.711 211.756C237.135 212.218 242.66 215.37 242.666 216.295C242.675 217.646 248.285 221.316 250.394 221.35C251.357 221.366 252.936 221.978 253.904 222.71C254.871 223.441 256.396 223.808 257.291 223.523C258.381 223.177 258.919 223.469 258.919 224.405C258.919 225.181 260.025 226.074 261.403 226.412C262.769 226.746 264.161 227.439 264.496 227.952C264.909 228.584 265.489 228.589 266.302 227.965C267.624 226.952 274.232 227.009 278.114 228.067C279.943 228.565 280.598 229.314 280.598 230.904C280.598 232.372 281.113 233.065 282.204 233.065C283.087 233.065 284.697 233.686 285.781 234.446C287.011 235.307 288.616 235.61 290.047 235.251C291.746 234.825 292.341 235.03 292.341 236.041C292.341 237.347 295.058 237.951 304.535 238.75C306.026 238.876 307.73 239.284 308.323 239.657C308.916 240.029 310.745 240.07 312.388 239.746C314.031 239.423 316.105 239.186 316.999 239.22C319.584 239.318 320.705 235.748 319.227 232.125C317.369 227.571 318.885 220.585 321.986 219.406C326.446 217.71 327.111 218.506 327.188 225.637C327.245 230.987 327.576 232.428 328.994 233.504C329.949 234.228 331.29 234.622 331.974 234.379C332.658 234.136 333.771 234.396 334.448 234.958C335.829 236.104 341.229 235.382 343.939 233.689C345.245 232.873 346.046 232.887 347.429 233.751C349.65 235.138 352.89 235.168 359.394 233.861L364.421 232.852L364.226 229.119C364.044 225.638 363.853 225.387 361.381 225.387C357.823 225.387 357.869 222.942 361.442 222.151C366.386 221.055 369.289 219.515 369.753 217.74C370.006 216.775 371.186 215.348 372.376 214.568C373.566 213.789 374.54 212.594 374.54 211.915C374.54 211.235 376.064 210.068 377.927 209.322C379.79 208.576 382.127 207.066 383.121 205.965C386.339 202.401 389.866 200.304 391.056 201.248C391.66 201.726 393.647 202.386 395.471 202.715C398.199 203.206 398.881 203.02 399.309 201.673C399.595 200.771 401.003 199.341 402.438 198.493C404.571 197.233 405.225 197.168 406.031 198.139C406.693 198.936 406.717 199.623 406.104 200.236C405.602 200.737 405.456 201.836 405.779 202.677C406.25 203.905 406.625 203.99 407.684 203.111C408.729 202.244 409.172 202.286 409.823 203.314C410.889 204.999 410.876 205.733 409.768 206.418C409.271 206.725 408.864 207.808 408.864 208.826C408.864 210.239 409.238 210.519 410.445 210.01C411.315 209.644 413.429 209.415 415.144 209.502C420.778 209.788 422.318 212.941 418.349 216.064C415.72 218.131 415.489 220.063 417.591 222.385C419.468 224.46 418.633 225.542 416.67 223.578C414.763 221.671 409.403 222.632 407.268 225.264C406.407 226.325 404.077 228.391 402.09 229.855C397.445 233.278 396.989 233.951 397.474 236.678C398.056 239.954 397.18 243.501 395.288 245.532C393.341 247.621 392.969 249.193 393.911 251.349C394.342 252.332 393.96 254.024 392.893 255.865C391.955 257.484 390.623 260.552 389.933 262.684C388.985 265.613 388.331 266.419 387.255 265.987C386.472 265.672 384.264 265.253 382.35 265.056C379.308 264.742 378.96 264.895 379.586 266.269C379.98 267.134 380.464 270.177 380.662 273.033C380.935 276.96 380.707 278.345 379.725 278.722C378.759 279.093 378.533 280.333 378.844 283.563C379.161 286.865 378.874 288.358 377.643 289.795C376.139 291.552 375.943 291.577 374.859 290.15C373.897 288.884 373.685 288.852 373.646 289.972C373.561 292.38 369.306 279.254 368.668 274.617C368.126 270.674 367.854 270.23 366.446 270.983C365.563 271.456 364.584 271.586 364.271 271.272C363.957 270.958 363.7 271.558 363.7 272.605C363.7 273.652 363.294 274.76 362.797 275.067C362.3 275.374 361.894 276.618 361.894 277.831C361.894 280.547 360.428 280.725 359.598 278.11C359.219 276.918 358.749 276.568 358.364 277.19C357.421 278.716 355.787 271.532 356.586 269.372C357.038 268.15 358.409 267.278 360.491 266.887C362.256 266.556 363.7 265.887 363.7 265.401C363.7 264.915 364.564 263.818 365.62 262.963C366.69 262.097 367.539 260.365 367.539 259.051C367.539 257.422 367.923 256.841 368.781 257.17C369.464 257.432 370.023 257.211 370.023 256.678C370.023 254.534 365.602 253.493 355.571 253.276C349.857 253.152 343.911 252.813 342.357 252.522C339.667 252.018 339.512 251.756 339.122 247.046C338.647 241.32 337.847 240.075 336.142 242.407C334.788 244.258 331.182 243.742 331.182 241.696C331.182 241.045 330.496 239.954 329.658 239.272C328.323 238.187 328.207 238.229 328.726 239.613C329.615 241.986 327.596 241.548 324.554 238.71C321.993 236.321 321.91 236.304 322.391 238.274C322.673 239.428 322.354 240.86 321.662 241.553C320.985 242.229 320.164 243.848 319.838 245.15C319.385 246.953 319.582 247.517 320.664 247.517C321.446 247.517 322.521 248.33 323.052 249.324C323.584 250.317 324.644 251.13 325.407 251.13C326.17 251.13 327.363 251.699 328.058 252.394C329.141 253.477 328.987 253.742 326.981 254.245C325.694 254.568 324.047 255.426 323.322 256.151C322.597 256.877 321.626 257.237 321.165 256.952C320.704 256.667 319.968 257.375 319.528 258.524C318.915 260.129 319.163 261.087 320.597 262.647C321.624 263.765 322.925 264.68 323.489 264.68C324.052 264.68 325.261 265.226 326.175 265.894C327.786 267.072 327.784 267.198 326.122 270.026C324.593 272.627 324.558 273.058 325.795 274.005C326.558 274.589 327.037 275.779 326.858 276.648C326.654 277.641 327.082 278.229 328.007 278.229C328.818 278.229 329.275 278.564 329.022 278.974C328.768 279.383 329.092 282.001 329.74 284.79L330.919 289.861L328.341 290.929C326.922 291.517 325.762 292.51 325.762 293.137C325.762 293.764 324.949 294.49 323.956 294.75C322.438 295.147 322.14 294.766 322.092 292.371C322.043 289.959 321.915 289.798 321.255 291.327C319.577 295.219 315.398 298.718 311.465 299.523C307.339 300.368 305.128 304.023 306.825 307.193C307.481 308.419 307.469 308.941 306.785 308.941C306.249 308.941 305.894 309.449 305.995 310.07C306.346 312.218 304.214 315.922 302.346 316.41C301.314 316.68 300.47 317.541 300.47 318.323C300.47 319.133 299.4 319.994 297.986 320.323C296.62 320.64 293.008 322.104 289.96 323.575C285.662 325.649 283.583 327.398 280.694 331.37C278.646 334.186 275.449 337.784 273.59 339.365C271.731 340.946 268.063 344.096 265.438 346.365C262.813 348.635 260.149 350.492 259.517 350.492C257.256 350.492 251.693 356.518 251.693 358.966C251.693 360.773 251.005 361.615 248.757 362.561C247.142 363.24 245.256 363.497 244.564 363.133C242.482 362.036 239.957 363.213 238.55 365.936C237.043 368.849 233.966 370.93 233.451 369.385C233.267 368.833 232.175 368.664 230.894 368.99C229.386 369.373 227.957 370.977 226.501 373.92C224.696 377.571 224.5 378.729 225.299 381.021C225.824 382.527 226.109 383.904 225.933 384.08C225.04 384.973 224.729 398.343 225.589 398.874C227.625 400.132 225.276 409.838 221.931 413.991C220.005 416.382 219.829 417.73 220.048 428.4L220.247 438.11H216.972C214.678 438.11 213.524 438.583 213.115 439.691C212.795 440.56 211.648 442.491 210.567 443.982C207.455 448.272 207.332 448.72 208.843 450.232C210.144 451.533 210.125 451.659 208.625 451.655C207.721 451.653 205.091 452.328 202.782 453.155C198.994 454.513 198.53 454.993 198.039 458.067C197.378 462.195 193.659 465.209 189.227 465.208C186.905 465.207 185.419 464.398 182.817 461.716ZM225.497 331.74C225.497 331.363 217.361 322.929 207.416 312.997L189.334 294.94L196.802 294.475C210.4 293.628 218.981 286.79 223.14 273.487C223.522 272.267 224.633 271.906 228.014 271.906H232.394L233.914 267.085C234.75 264.433 235.434 261.994 235.434 261.665C235.434 261.336 232.632 261.067 229.209 261.067C223.166 261.067 222.966 260.994 222.379 258.583C222.046 257.217 220.777 254.574 219.558 252.711L217.342 249.324H224.868H232.394L233.914 244.502C234.75 241.851 235.434 239.412 235.434 239.083C235.434 238.754 222.049 238.485 205.689 238.485H175.945L174.526 243.366C173.746 246.051 173.107 248.489 173.107 248.786C173.107 249.082 178.669 249.324 185.468 249.324C196.183 249.324 198.351 249.577 201.751 251.223C205.544 253.059 210.142 257.881 210.142 260.023C210.142 260.776 205.4 261.067 193.144 261.067H176.147L174.627 265.888C173.791 268.54 173.107 270.979 173.107 271.308C173.107 271.637 181.643 271.906 192.076 271.906C202.509 271.906 211.045 272.13 211.045 272.403C211.045 273.952 208.001 278.336 205.244 280.756C200.877 284.591 197.043 285.445 184.172 285.45L173.107 285.455V289.738V294.021L192.294 313.224L211.481 332.426H218.489C222.344 332.426 225.497 332.118 225.497 331.74Z" fill="black"/>
</svg>
