<svg width="512" height="512" viewBox="0 0 512 512" fill="none" xmlns="http://www.w3.org/2000/svg">
<path d="M84.3728 429.105C81.6552 426.65 81.0157 423.678 81.0002 413.429C80.9855 403.653 81.665 400.693 84.4708 398.314C86.3982 396.679 87.0579 396.547 93.2838 396.547H100.013L100.239 387.534L100.464 378.522L103.018 376.165C105.378 373.986 105.908 373.807 110.025 373.807H114.479V348.312V322.817L110.89 322.816C106.277 322.814 102.854 321.089 101.32 317.993C100.394 316.127 100.124 313.829 100.123 307.829L100.122 300.077L93.7984 300.075C88.7432 300.073 87.0378 299.804 85.2965 298.734C81.6025 296.463 81.3219 295.337 81.3219 282.784C81.3219 266.114 81.8615 265.439 95.5075 265.047L104.224 264.797L104.224 236.442L104.224 208.087L99.6092 208.034C89.1164 207.914 81.5238 200.166 81.5738 189.63C81.5979 184.5 84.1557 178.915 87.8165 175.996C90.6871 173.707 243.126 84.9292 248.378 82.4872C251.506 81.0327 252.759 80.8301 256.924 81.1043C260.16 81.3174 262.84 81.9598 264.88 83.0115C271.952 86.6571 421.979 174.231 424.169 175.993C428.002 179.074 430.325 184.275 430.307 189.733C430.273 200.422 422.933 207.913 412.377 208.034L407.762 208.087L407.762 236.442L407.762 264.797L416.478 265.038C425.72 265.294 427.115 265.737 429.527 269.179C431.065 271.372 431.572 290.09 430.206 294.195C428.701 298.714 425.933 300.077 418.257 300.077H411.864L411.863 307.829C411.862 313.829 411.591 316.127 410.666 317.993C409.132 321.089 405.708 322.814 401.096 322.816L397.507 322.817V348.312V373.807H401.961C406.078 373.807 406.608 373.986 408.968 376.165L411.522 378.522L411.747 387.534L411.973 396.547H418.702C424.928 396.547 425.588 396.679 427.515 398.314C430.337 400.707 430.998 403.643 430.998 413.773C430.998 423.904 430.337 426.84 427.515 429.233L425.432 431H346.301H267.17L265.683 429.405C263.736 427.316 263.801 425.134 265.875 423.044L267.553 421.353H344.152H420.751V413.773V406.194H255.993H91.2348V413.773V421.353H168.736C246.107 421.353 246.241 421.355 248.039 422.781C250.243 424.529 250.44 427.639 248.473 429.622C247.121 430.984 246.194 431 166.788 431H86.4708L84.3728 429.105ZM173.956 390.001V383.454H141.824H109.693V389.541C109.693 392.889 109.898 395.835 110.149 396.087C110.4 396.34 124.859 396.547 142.28 396.547H173.956V390.001ZM214.291 388.244C214.291 376.242 216.014 373.807 224.511 373.807H228.647V348.312V322.817H224.646C221.614 322.817 220.086 322.436 218.333 321.246C214.815 318.856 214.312 317.225 214.301 308.174L214.291 300.077H198.909H183.527V308.38C183.527 317.872 182.854 319.933 179.181 321.69C177.872 322.316 175.124 322.817 172.998 322.817H169.17V348.237V373.657L174.369 373.921C179.22 374.168 179.699 374.335 181.547 376.419C183.504 378.627 183.527 378.751 183.527 387.14C183.527 391.808 183.732 395.835 183.982 396.087C184.233 396.34 191.155 396.547 199.364 396.547H214.291L214.291 388.244ZM288.124 390.001V383.454H255.993H223.862V390.001V396.547H255.993H288.124V390.001ZM328.459 387.085C328.79 378.263 328.862 377.906 330.683 376.073C332.335 374.41 333.193 374.147 337.691 373.918L342.816 373.657V348.237V322.817H338.988C336.862 322.817 334.114 322.316 332.805 321.69C329.132 319.933 328.459 317.872 328.459 308.38V300.077H313.077H297.695L297.685 308.174C297.674 317.225 297.17 318.856 293.653 321.246C291.9 322.436 290.372 322.817 287.339 322.817H283.339V348.312V373.807H287.474C295.974 373.807 297.695 376.24 297.695 388.257V396.573L312.906 396.388L328.117 396.202L328.459 387.085ZM402.147 389.828L402.344 383.454H370.187H338.03V390.007V396.56L369.991 396.381L401.951 396.202L402.147 389.828ZM159.599 348.312V322.817H141.824H124.05V348.312V373.807H141.824H159.599V348.312ZM273.768 348.312V322.817H255.993H238.218V348.312V373.807H255.993H273.768V348.312ZM387.936 348.312V322.817H370.161H352.387V348.312V373.807H370.161H387.936V348.312ZM173.956 306.624V300.077H141.824H109.693V306.624V313.17H141.824H173.956V306.624ZM288.124 306.624V300.077H255.993H223.862V306.624V313.17H255.993H288.124V306.624ZM402.293 306.624V300.077H370.161H338.03V306.624V313.17H370.161H402.293V306.624ZM420.751 282.506V274.582H343.196H265.641L264.577 273.051C262.945 270.701 263.241 268.007 265.314 266.363C267.108 264.941 267.386 264.935 332.653 264.935H398.191L398.161 233.755L398.13 202.575L327.593 161.6C288.794 139.064 256.583 120.626 256.01 120.627C255.125 120.629 210.851 146.186 132.595 191.87L114.137 202.646L113.959 233.79L113.781 264.935H180.009C245.975 264.935 246.245 264.941 248.039 266.363C250.153 268.04 250.473 271.357 248.709 273.322C247.625 274.529 244.269 274.582 169.406 274.582H91.2348V282.506V290.43H255.993H420.751V282.506ZM167.553 247.658L165.752 246.23V224.23C165.752 197.202 164.715 199.474 177.059 199.474C186.297 199.474 188.973 200.224 192.211 203.723C195.691 207.484 196.899 214.69 194.751 218.877C193.711 220.904 193.735 221.056 195.398 222.805C201.118 228.825 200.649 238.657 194.351 244.751C190.813 248.174 187.313 249.087 177.722 249.087C170.292 249.087 169.153 248.926 167.553 247.658ZM188.373 237.468C190.162 235.241 190.076 231.34 188.193 229.32C186.87 227.901 186.08 227.725 181.015 227.725H175.323V233.653V239.581L181.194 239.338C186.384 239.123 187.218 238.906 188.373 237.468ZM185.187 216.307C186.587 214.895 186.559 211.972 185.13 210.381C184.26 209.412 182.995 209.121 179.661 209.121H175.323V213.255V217.389H179.718C182.802 217.389 184.433 217.066 185.187 216.307ZM210.992 247.492C210.174 246.615 209.505 245.217 209.505 244.386C209.505 242.014 224.539 202.755 226.111 201.024C227.829 199.132 231.302 198.967 233.368 200.68C234.312 201.462 237.577 209.241 242.673 222.844C246.991 234.371 250.524 244.23 250.524 244.753C250.524 246.286 247.308 249.087 245.547 249.087C243.381 249.087 241.2 246.619 239.859 242.652L238.76 239.401L229.862 239.592L220.964 239.784L219.651 243.229C217.463 248.969 213.971 250.688 210.992 247.492ZM234.8 229.495C234.8 228.74 230.553 217.671 230.076 217.184C229.606 216.703 225.229 227.531 225.229 229.174C225.229 229.514 227.382 229.793 230.014 229.793C232.646 229.793 234.8 229.659 234.8 229.495ZM263.418 247.77L261.804 246.454L261.606 224.814C261.412 203.681 261.442 203.131 262.852 201.324C264.257 199.524 266.303 199.01 268.571 199.887C269.159 200.114 274.03 206.704 279.395 214.53L289.15 228.759L289.336 215.36C289.492 204.111 289.701 201.761 290.638 200.717C292.179 199 295.789 199.11 297.418 200.923C298.63 202.271 298.734 203.85 298.919 223.534C299.113 244.183 299.082 244.741 297.673 246.547C295.685 249.095 292.419 249.076 290.064 246.503C289.111 245.46 284.685 239.259 280.229 232.721C275.773 226.184 271.881 220.835 271.58 220.835C271.279 220.835 271.033 226.559 271.033 233.556C271.033 245.755 270.972 246.334 269.537 247.682C267.663 249.441 265.505 249.472 263.418 247.77ZM316.588 247.658L314.786 246.23V224.006V201.781L316.369 200.283C318.538 198.228 321.189 198.356 322.94 200.6C324.083 202.064 324.357 203.4 324.357 207.491C324.357 210.282 324.588 212.552 324.87 212.534C325.152 212.517 328.459 209.568 332.219 205.982C338.372 200.113 339.288 199.479 341.38 199.64C342.992 199.763 344.132 200.397 345.097 201.705C346.365 203.424 346.402 203.771 345.507 205.588C344.967 206.685 340.755 211.06 336.148 215.311L327.771 223.039L337.702 232.789C348.403 243.297 348.977 244.317 345.923 247.395C342.866 250.476 341.388 249.804 332.963 241.507C328.73 237.338 325.062 233.927 324.812 233.927C324.562 233.927 324.357 236.577 324.357 239.815C324.357 245.149 324.199 245.863 322.679 247.395C320.629 249.461 318.953 249.534 316.588 247.658ZM250.067 181.703C232.093 175.228 230.613 150.921 247.679 142.474C252.938 139.871 260.892 139.747 265.564 142.194C269.752 144.388 273.524 148.14 275.697 152.273C277.246 155.219 277.509 156.567 277.51 161.575C277.511 166.379 277.223 167.99 275.909 170.533C270.782 180.453 259.788 185.205 250.067 181.703ZM262.173 171.703C269.634 167.726 270.245 156.335 263.233 151.967C257.977 148.693 252.276 149.462 248.215 153.993C244.164 158.512 244.071 164.437 247.981 168.925C251.948 173.479 256.989 174.466 262.173 171.703ZM178.289 154.164C219.71 130.049 254.446 110.188 255.48 110.029C257.426 109.729 257.923 110.012 370.161 175.37C391.406 187.74 409.664 198.083 410.736 198.354C413.433 199.035 416.959 197.709 419.02 195.241C421.54 192.222 421.471 187.185 418.871 184.362C417.452 182.821 271.695 97.3248 260.851 91.6729C259.721 91.0835 257.456 90.6013 255.819 90.6013C253.126 90.6013 245.316 94.9752 173.919 136.465C130.511 161.69 94.149 183.246 93.115 184.366C91.6004 186.007 91.235 187.053 91.235 189.745C91.235 195.228 95.6284 199.245 100.696 198.394C101.952 198.183 136.868 178.28 178.289 154.164Z" fill="currentColor"/>
</svg>
