<svg width="512" height="512" viewBox="0 0 512 512" fill="none" xmlns="http://www.w3.org/2000/svg">
<path d="M248.408 430.284C234.129 426.145 224.837 411.941 227.174 397.826C228.747 388.323 235.009 379.871 243.618 375.629C247.876 373.532 248.541 373.411 256.33 373.321L264.548 373.226L279.932 367.434C288.393 364.248 301.622 359.388 309.331 356.635C317.04 353.882 323.469 351.534 323.618 351.418C324.22 350.95 319.872 345.272 314.924 340.064C303.068 327.586 287.707 319.168 270.916 315.948C263.482 314.522 248.559 314.505 241.246 315.914C216.132 320.751 194.413 337.143 182.916 359.935C178.217 369.251 174.674 383.284 174.611 392.835C174.561 400.425 172.534 404.351 167.462 406.682C164.917 407.852 162.163 407.94 127.681 407.954C103.132 407.964 89.9852 407.723 88.7098 407.241C86.0906 406.251 83.0533 403.298 81.9149 400.636C80.7886 398.001 80.6939 389.72 81.677 379.818C84.9089 347.262 96.2103 317.914 115.496 291.995C145.253 252.003 189.193 226.993 238.804 221.812C249.896 220.653 273.182 221.346 283.729 223.148C320.996 229.514 353.339 246.146 379.726 272.512C410.531 303.293 428.753 344.277 430.815 387.416C431.32 397.975 430.907 400.44 428.102 403.638C424.206 408.078 425.305 407.969 384.539 407.969C352.821 407.969 347.217 407.82 345.058 406.916C339.471 404.58 338.044 401.835 337.318 392.025C337.015 387.922 336.64 384.439 336.486 384.284C336.331 384.13 326.697 389.494 315.076 396.205C303.456 402.916 291.332 409.836 288.136 411.582C283.524 414.103 281.925 415.398 280.386 417.857C277.724 422.112 272.901 426.24 267.744 428.679C264.202 430.355 262.344 430.768 257.488 430.961C253.867 431.105 250.331 430.841 248.408 430.284ZM261.177 418.594C268.343 416.454 273.095 409.878 273.095 402.102C273.095 394.907 269.569 389.289 263.186 386.314C254.507 382.27 243.553 386.539 239.849 395.41C238.263 399.209 238.641 405.793 240.68 409.888C244.559 417.677 252.686 421.129 261.177 418.594ZM304.67 388.58C331.031 373.47 379.607 344.617 377.702 345.202C373.641 346.447 330.008 361.793 310.698 368.767C277.416 380.787 277.197 380.87 277.197 381.524C277.197 381.848 278.014 383.081 279.012 384.265C281.534 387.253 283.938 392.651 284.453 396.482L284.887 399.706L286.807 398.712C287.864 398.165 295.902 393.606 304.67 388.58ZM162.649 391.034C163.249 383.658 165.503 372.333 167.586 366.232C170.811 356.78 177.035 345.511 183.307 337.767C184.557 336.223 185.58 334.685 185.58 334.349C185.58 333.443 137.516 285.495 136.607 285.495C135.359 285.495 125.755 297.439 119.827 306.364C107.537 324.866 98.6956 347.218 95.0646 368.969C93.9577 375.6 92.6129 389.146 92.6024 393.771L92.5965 396.337H127.407H162.218L162.649 391.034ZM419.402 393.771C419.398 392.36 419.087 387.665 418.711 383.337C416.236 354.91 407.141 328.754 391.707 305.679C386.035 297.199 376.577 285.495 375.397 285.495C374.968 285.495 363.699 296.426 350.353 309.785C331.802 328.355 326.249 334.294 326.769 335.006C327.143 335.518 329.244 338.443 331.437 341.506C333.631 344.568 335.6 347.074 335.813 347.074C336.026 347.074 345.499 343.841 356.864 339.89C370.31 335.215 378.526 332.706 380.384 332.706C389.72 332.706 395.084 344.039 389.256 351.453C388.47 352.454 378.753 358.694 367.664 365.32L347.502 377.367L347.895 379.497C348.286 381.613 349.635 393.845 349.658 395.482C349.667 396.155 357.106 396.337 384.539 396.337H419.408L419.402 393.771ZM198.778 322.497C207.22 315.859 218.99 309.767 229.143 306.782C234.854 305.104 244.417 303.285 247.531 303.285H249.849V268.029V232.773L245.234 233.183C207.317 236.553 174.845 250.123 147.977 273.823L144.9 276.537L169.51 301.201C183.045 314.765 194.205 325.864 194.309 325.864C194.413 325.864 196.424 324.349 198.778 322.497ZM342.494 301.201L367.104 276.537L364.027 273.814C353.352 264.366 339.67 255.356 326.082 248.827C307.556 239.924 289.74 235.225 266.77 233.183L262.155 232.773V268.029V303.285H264.954C269.445 303.285 281.045 305.907 288.107 308.518C296.531 311.634 305.638 316.65 312.077 321.721C314.891 323.938 317.349 325.777 317.539 325.808C317.729 325.838 328.959 314.765 342.494 301.201ZM125.044 219.934C121.633 218.334 118.873 215.141 117.8 211.557C117.124 209.3 117.236 207.08 118.457 198.506L119.928 188.174L113.336 181.243C106.575 174.135 104.261 170.441 104.235 166.716C104.203 162.227 106.829 157.358 110.428 155.229C111.989 154.307 128.195 150.759 131.05 150.714C131.329 150.71 133.53 146.78 135.94 141.982C140.555 132.793 142.602 130.243 146.758 128.506C149.969 127.164 152.138 127.164 155.348 128.506C159.398 130.198 161.043 132.295 165.688 141.68L170.055 150.504L179.014 152.054C189.754 153.912 191.442 154.545 194.28 157.779C197.858 161.858 198.706 167.973 196.305 172.388C195.857 173.212 192.454 177.154 188.743 181.148L181.995 188.409L183.498 198.541C184.711 206.716 184.855 209.214 184.247 211.474C183.27 215.104 180.528 218.318 177.062 219.894C172.233 222.089 170.025 221.641 160.042 216.442L150.944 211.705L142.536 216.143C132.848 221.256 129.436 221.995 125.044 219.934ZM150.839 199.253C151.709 199.235 156.777 201.467 162.102 204.213C167.426 206.959 172.026 208.965 172.323 208.669C172.621 208.374 172.18 203.14 171.343 197.038C170.506 190.936 169.828 185.542 169.838 185.052C169.847 184.561 173.393 180.351 177.718 175.694C184.6 168.284 186.826 165.075 185.084 165.075C184.811 165.075 179.965 164.268 174.316 163.283C167.258 162.053 163.616 161.102 162.676 160.245C161.924 159.559 159.164 154.669 156.542 149.379C153.921 144.088 151.455 139.759 151.062 139.759C150.669 139.759 148.129 144.211 145.418 149.653C142.585 155.34 139.82 159.987 138.916 160.579C138.051 161.146 132.737 162.412 127.106 163.393C121.475 164.374 116.59 165.447 116.249 165.779C115.886 166.133 118.886 169.883 123.524 174.873C127.866 179.544 131.611 183.975 131.847 184.72C132.084 185.465 131.515 191.098 130.583 197.238C129.651 203.377 129.056 208.671 129.26 209.002C129.464 209.332 134.047 207.281 139.444 204.444C144.842 201.606 149.97 199.27 150.839 199.253ZM334.942 219.894C331.476 218.318 328.734 215.104 327.757 211.474C327.149 209.214 327.293 206.717 328.505 198.547L330.007 188.421L322.804 180.606C314.285 171.363 313.168 168.863 314.85 162.802C315.766 159.501 319.694 155.101 322.537 154.191C323.735 153.807 328.554 152.847 333.247 152.057C337.939 151.267 341.827 150.562 341.886 150.492C341.945 150.422 344.008 146.329 346.471 141.396C351.261 131.803 353.314 129.414 357.964 128.019C361.684 126.904 366.324 128.145 369.391 131.074C370.672 132.298 373.605 137.094 376.062 141.982C378.473 146.78 380.829 150.715 381.296 150.726C381.763 150.737 386.065 151.48 390.855 152.376C401.252 154.321 403.599 155.57 406.027 160.445C409.498 167.416 408.058 171.482 398.638 181.304L392.072 188.149L393.545 198.493C394.778 207.147 394.884 209.288 394.192 211.599C392.407 217.561 386.111 221.825 380.435 220.917C378.918 220.674 373.947 218.507 369.388 216.1L361.098 211.725L351.99 216.453C341.994 221.641 339.772 222.089 334.942 219.894ZM381.428 197.285C380.493 191.119 379.931 185.429 380.18 184.64C380.429 183.852 382.811 180.897 385.474 178.074C388.136 175.252 391.694 171.482 393.379 169.697C395.315 167.647 396.203 166.214 395.79 165.808C395.43 165.454 390.521 164.352 384.88 163.359C379.24 162.366 373.925 161.102 373.07 160.551C372.178 159.975 369.416 155.334 366.586 149.653C363.875 144.211 361.335 139.759 360.942 139.759C360.549 139.759 358.083 144.088 355.462 149.379C352.84 154.669 350.08 159.566 349.328 160.26C348.373 161.141 344.858 162.059 337.686 163.299C332.035 164.275 327.19 165.075 326.918 165.075C325.192 165.075 327.348 168.227 333.773 175.1C337.816 179.423 341.391 183.441 341.719 184.027C342.083 184.677 341.698 189.587 340.732 196.617C339.861 202.956 339.39 208.382 339.685 208.674C339.98 208.967 344.578 206.964 349.902 204.224C355.227 201.483 360.352 199.257 361.293 199.277C362.233 199.297 367.309 201.598 372.574 204.39C377.838 207.182 382.367 209.248 382.638 208.981C382.908 208.713 382.364 203.45 381.428 197.285ZM232.414 174.016C229.366 173.283 227.708 172.236 225.363 169.563C222.039 165.774 221.895 163.56 223.95 147.846L224.816 141.222L217.923 134.06C210.321 126.161 209.176 123.962 209.655 118.179C209.989 114.148 212.282 110.443 215.751 108.332C216.84 107.669 221.993 106.412 227.203 105.538L236.676 103.949L240.698 95.7369C242.911 91.2202 245.452 86.6402 246.345 85.5592C250.006 81.13 256.444 79.7183 261.413 82.2552C265.079 84.1267 266.702 86.3376 271.296 95.7167L275.308 103.909L284.778 105.51C289.986 106.391 295.144 107.657 296.24 108.324C299.721 110.443 302.015 114.143 302.349 118.179C302.828 123.962 301.683 126.161 294.081 134.06L287.188 141.222L288.066 147.846C290.212 164.039 289.899 166.743 285.402 170.808C282.36 173.558 278.425 174.855 275.067 174.214C273.794 173.971 268.987 171.791 264.384 169.368L256.016 164.964L247.633 169.383C238.99 173.94 235.948 174.866 232.414 174.016ZM244.815 157.548C250.451 154.581 254.726 152.759 256.05 152.759C257.379 152.759 261.76 154.635 267.633 157.719C272.828 160.448 277.302 162.457 277.575 162.185C277.848 161.913 277.413 157.288 276.609 151.907C274.333 136.69 273.871 138.37 283.008 128.635C287.332 124.028 290.871 119.888 290.871 119.435C290.871 118.981 289.871 118.428 288.649 118.206C287.427 117.983 282.502 117.097 277.704 116.236C271.258 115.08 268.582 114.296 267.449 113.23C266.606 112.437 263.771 107.459 261.149 102.168C258.528 96.8773 256.22 92.5496 256.022 92.551C255.823 92.5525 253.279 97.2863 250.368 103.071C246.128 111.496 244.701 113.739 243.189 114.349C241.813 114.904 222.837 118.548 221.321 118.548C220.086 118.548 222.473 121.686 228.996 128.635C238.087 138.321 237.636 136.766 235.491 151.048C233.915 161.543 233.874 162.338 234.921 162.338C235.359 162.338 239.812 160.182 244.815 157.548Z" fill="currentColor"/>
</svg>
