<svg width="512" height="512" viewBox="0 0 512 512" fill="none" xmlns="http://www.w3.org/2000/svg">
<path d="M86.2433 388.619C84.6601 387.775 83.1511 386.196 82.2794 384.471C80.8938 381.73 80.8757 380.996 81.1183 337.383C81.3896 288.603 81.2654 290.157 85.8852 277.742C90.8129 264.5 101.198 251.498 113.295 243.424L119.33 239.396L115.584 235.527C88.6669 207.723 102.145 160.577 140.011 150.086C145.307 148.619 159.048 148.454 164.351 149.794C183.124 154.538 198.058 169.615 202.715 188.525C203.93 193.457 203.925 207.106 202.704 211.94C200.379 221.155 196.007 229.187 189.856 235.54L186.098 239.422L191.804 243.203C194.942 245.282 199.556 248.892 202.058 251.225C206.873 255.715 207.423 256.049 207.423 254.487C207.423 253.947 208.455 251.037 209.716 248.019C214.951 235.49 225.152 223.18 236.471 215.732L242.423 211.817L238.665 207.935C232.519 201.587 228.011 193.329 225.808 184.384C225.289 182.279 224.873 177.054 224.873 172.652C224.873 161.237 227.108 153.514 233.061 144.357C248.267 120.966 279.3 113.989 302.64 128.713C330.289 146.155 335.309 184.816 312.926 207.935L309.168 211.817L315.215 215.785C329.284 225.016 340.656 240.817 344.982 257.142C345.442 258.878 345.987 260.298 346.193 260.298C346.399 260.298 357.641 249.118 371.174 235.453L395.781 210.609H386.698C378.944 210.609 377.22 210.406 374.917 209.219C371.884 207.657 369.465 203.681 369.465 200.257C369.465 196.832 371.884 192.857 374.917 191.295C377.46 189.985 378.914 189.905 400.233 189.905C421.551 189.905 423.005 189.985 425.548 191.295C427.285 192.189 428.737 193.655 429.623 195.408C430.921 197.975 431 199.443 431 220.961C431 242.479 430.921 243.946 429.623 246.514C428.076 249.575 424.137 252.016 420.744 252.016C417.351 252.016 413.412 249.575 411.865 246.514C410.69 244.188 410.488 242.448 410.488 234.62V225.45L353.91 282.49C322.793 313.862 296.348 340.026 295.144 340.632C292.359 342.033 289.313 342.033 286.53 340.63C285.327 340.023 278.111 333.271 270.495 325.624L256.647 311.721L218.874 349.78C198.098 370.712 180.115 388.335 178.912 388.94C176.974 389.916 171.686 390.038 132.761 390.011C90.3409 389.983 88.71 389.933 86.2433 388.619ZM187.146 352.196L204.118 335.054L203.839 315.102C203.522 292.458 203.287 291.03 198.122 280.403C192.938 269.739 182.332 259.86 171.453 255.563C142.08 243.96 108.95 262.23 102.537 293.569C101.625 298.026 101.449 304.587 101.449 334.112V369.338H135.811H170.173L187.146 352.196ZM309.241 297.97L327.29 279.741L326.849 273.298C325.909 259.588 320.842 248.486 311.261 239.144C304.402 232.456 296.501 228.003 287.421 225.708C281.945 224.325 268.296 224.501 263.149 226.022C244.637 231.492 231.457 244.646 226.119 262.981C225.196 266.153 224.941 271.168 224.715 290.664L224.439 314.473L237.299 301.601C244.371 294.522 251.143 288.233 252.346 287.626C255.257 286.158 258.209 286.234 261.296 287.855C262.691 288.588 269.829 295.265 277.158 302.693C284.488 310.121 290.643 316.198 290.838 316.198C291.032 316.198 299.313 307.995 309.241 297.97ZM159.018 230.53C174.966 227.085 185.658 211.348 182.936 195.326C178.696 170.368 148.828 160.654 131.16 178.487C119.021 190.741 119.021 209.767 131.16 222.03C138.72 229.667 148.791 232.739 159.018 230.53ZM282.088 202.931C297.948 199.532 308.717 183.679 306.005 167.721C301.761 142.735 271.961 133.047 254.211 150.882C242.49 162.659 242.071 181.24 253.247 193.584C260.406 201.49 271.714 205.155 282.088 202.931Z" fill="currentColor"/>
</svg>
