<svg width="512" height="512" viewBox="0 0 512 512" fill="none" xmlns="http://www.w3.org/2000/svg">
<path d="M201.896 413.714C201.876 409.478 201.258 404.932 200.524 403.61C199.79 402.288 187.518 388.761 173.253 373.549C158.988 358.337 145.975 343.884 144.335 341.43C138.401 332.549 138.2 330.582 138.2 281.152C138.2 236.25 138.223 235.783 140.503 232.884C142.96 229.761 148.363 227.027 152.08 227.027C155.904 227.027 161.716 230.405 163.815 233.847C165.647 236.85 165.807 239.604 165.773 267.392L165.736 297.666L162.359 299.79C155.062 304.379 151.89 316.242 155.881 324.009C156.841 325.878 163.892 334.27 171.549 342.657C189.948 362.812 192.286 365.821 193.723 371.193C194.916 375.652 195.027 375.739 199.499 375.739C203.937 375.739 204.058 375.648 204.048 372.287C204.027 365.361 199.479 358.669 182.026 339.889C164.144 320.647 162.753 318.348 165.331 312.303C167.689 306.773 171.068 305.025 178.565 305.454C180.551 305.568 189.638 314.12 214.577 339.345C255.459 380.695 253.264 377.128 253.809 403.092L254.193 421.415H228.064H201.934L201.896 413.714ZM298.771 403.092C299.316 377.16 297.202 380.619 337.393 339.886C372.62 304.184 373.924 303.172 380.925 306.097C382.814 306.887 385.139 308.645 386.092 310.005C388.075 312.837 388.361 318.577 386.677 321.725C386.046 322.904 378.325 331.596 369.519 341.04C353.087 358.664 348.553 365.416 348.532 372.287C348.522 375.647 348.643 375.739 353.081 375.739C357.553 375.739 357.664 375.652 358.857 371.193C360.294 365.821 362.632 362.812 381.032 342.657C388.688 334.27 395.739 325.878 396.699 324.009C400.652 316.316 397.628 304.687 390.468 300.049L386.788 297.666L386.775 267.284C386.762 237.462 386.806 236.836 389.169 233.33C394.119 225.985 404.324 225.258 410.852 231.785L414.38 235.313V281.121C414.38 323.248 414.219 327.387 412.381 332.617C411.281 335.745 409.2 340.044 407.756 342.169C406.311 344.295 393.488 358.448 379.26 373.62C365.032 388.793 352.79 402.288 352.056 403.61C351.322 404.932 350.704 409.478 350.684 413.714L350.646 421.415H324.516H298.387L298.771 403.092ZM258.53 347.856C249.1 338.362 240.873 329.249 240.248 327.604C238.414 322.777 238.885 314.491 241.257 309.84C246.904 298.771 262.806 296.137 272.515 304.662L276.147 307.852L280.946 304.189C294.915 293.526 313.468 302.234 313.468 319.452C313.468 322.425 312.704 326.388 311.769 328.257C310.242 331.314 277.678 365.117 276.26 365.117C275.938 365.117 267.96 357.35 258.53 347.856ZM276.955 338.994C278.598 331.156 279.477 329.233 279.477 333.474C279.477 334.961 280.179 336.76 281.038 337.473C282.335 338.549 282.907 338.122 284.421 334.947L286.244 331.126H294.014C300.345 331.126 301.784 330.819 301.784 329.469C301.784 328.071 300.247 327.845 291.991 328.027L282.198 328.242L281.095 323.045C279.353 314.835 277.343 316.433 274.939 327.939L273.497 334.844L272.152 327.201C270.568 318.203 268.446 315.463 266.67 320.123C266.034 321.793 265.254 324.451 264.936 326.031C264.402 328.694 263.925 328.926 258.375 329.218C253.903 329.453 252.39 329.935 252.39 331.126C252.39 332.354 254.036 332.791 259.576 333.034C266.239 333.325 266.828 333.171 267.666 330.909C268.396 328.941 268.826 330.008 269.899 336.437C272.257 350.568 274.369 351.333 276.955 338.994ZM332.659 290.893C331.931 289.534 331.526 277.758 331.526 257.977V227.178L325.418 225.477C316.985 223.127 314.53 221.985 314.532 220.411C314.533 219.669 312.51 211.771 310.036 202.862C305.925 188.057 305.331 186.663 303.13 186.663H300.721L300.706 236.322C300.694 274.077 300.37 286.618 299.354 288.637C297.842 291.64 292.703 292.723 289.102 290.796C287.023 289.684 286.935 288.557 286.663 259.662L286.381 229.683L283.46 229.347L280.539 229.011V258.056C280.539 290.656 280.304 291.823 273.739 291.823C266.501 291.823 266.73 293.606 266.73 237.301V186.663H264.225C261.903 186.663 261.387 187.843 257.15 202.862C251.886 221.518 251.519 222.406 248.713 223.297C244.605 224.601 242.832 222.242 239.802 211.437C232.773 186.369 232.889 186.663 229.967 186.663C227.903 186.663 227.416 187.092 227.854 188.522C228.782 191.548 241.237 243.785 241.237 244.648C241.237 244.889 238.608 245.085 235.394 245.085H229.552V266.696C229.552 286.284 229.37 288.472 227.609 290.065C225.337 292.122 220.965 292.371 219.142 290.549C218.232 289.639 217.868 282.948 217.868 267.18V245.085H214.681H211.494V267.18C211.494 282.948 211.129 289.639 210.219 290.549C208.144 292.624 202.17 292.124 200.909 289.769C200.256 288.548 199.81 279.061 199.81 266.4V245.085H193.374C189.834 245.085 187.155 244.727 187.421 244.289C188.134 243.114 200.872 189.86 200.872 188.055C200.872 187.087 200.034 186.641 198.616 186.854C196.675 187.146 195.649 189.626 191.278 204.597C188.483 214.169 185.555 222.408 184.771 222.905C182.284 224.481 179.727 223.918 178.102 221.438C176.656 219.231 177.002 217.399 182.344 199.004C185.544 187.986 189.1 177.655 190.247 176.044C194.048 170.706 198.03 169.667 214.681 169.667C232.399 169.667 235.691 170.705 239.531 177.507C240.891 179.913 243.095 185.837 244.429 190.669C245.764 195.502 247.018 199.294 247.215 199.096C247.413 198.898 248.959 194.081 250.651 188.39C255.883 170.791 257.85 169.667 283.424 169.667C310.951 169.667 310.938 169.657 319.4 199.506L324.442 217.294L342.306 217.646L360.169 217.999L363.623 221.454C367.036 224.869 367.082 225.049 367.477 236.583C367.922 249.604 367.407 253.038 364.861 254.015C361.227 255.41 360.206 252.725 360.206 241.769C360.206 231.985 360.063 231.276 358.082 231.276C356.01 231.276 355.957 231.985 355.957 260.026C355.957 289.568 355.533 292.886 351.758 292.886C346.457 292.886 346.397 292.683 346.397 274.714V257.832H343.768H341.139L340.847 275.093L340.555 292.355L337.173 292.682C334.669 292.925 333.498 292.46 332.659 290.893ZM338.112 211.065C334.911 208.082 334.237 204.473 336.18 200.715C338.903 195.45 344.853 194.582 349.101 198.83C356.524 206.254 345.784 218.212 338.112 211.065ZM362.331 191.443C362.331 189.982 362.809 188.787 363.393 188.787C363.977 188.787 364.455 189.982 364.455 191.443C364.455 192.903 363.977 194.098 363.393 194.098C362.809 194.098 362.331 192.903 362.331 191.443ZM365.517 191.974C365.517 190.794 366.225 189.849 367.111 189.849C367.996 189.849 368.704 190.794 368.704 191.974C368.704 193.154 367.996 194.098 367.111 194.098C366.225 194.098 365.517 193.154 365.517 191.974ZM369.766 191.974C369.766 190.794 370.474 189.849 371.359 189.849C372.245 189.849 372.953 190.794 372.953 191.974C372.953 193.154 372.245 194.098 371.359 194.098C370.474 194.098 369.766 193.154 369.766 191.974ZM374.015 191.974C374.015 190.805 374.493 189.849 375.077 189.849C375.661 189.849 376.139 190.805 376.139 191.974C376.139 193.142 375.661 194.098 375.077 194.098C374.493 194.098 374.015 193.142 374.015 191.974ZM378.264 191.974C378.264 190.805 378.742 189.849 379.326 189.849C379.91 189.849 380.388 190.805 380.388 191.974C380.388 193.142 379.91 194.098 379.326 194.098C378.742 194.098 378.264 193.142 378.264 191.974ZM381.451 192.088C381.451 190.982 382.168 189.802 383.044 189.465C384.195 189.024 384.637 189.582 384.637 191.476C384.637 193.099 384.03 194.098 383.044 194.098C382.168 194.098 381.451 193.194 381.451 192.088ZM358.082 190.318C358.082 188.776 358.541 187.884 359.144 188.256C359.728 188.617 360.206 189.84 360.206 190.974C360.206 192.108 359.728 193.036 359.144 193.036C358.56 193.036 358.082 191.813 358.082 190.318ZM385.7 190.912C385.7 189.731 386.408 188.787 387.293 188.787C388.178 188.787 388.886 189.731 388.886 190.912C388.886 192.092 388.178 193.036 387.293 193.036C386.408 193.036 385.7 192.092 385.7 190.912ZM353.833 189.352C353.833 187.457 354.275 186.899 355.426 187.341C356.302 187.677 357.019 188.857 357.019 189.963C357.019 191.069 356.302 191.974 355.426 191.974C354.44 191.974 353.833 190.974 353.833 189.352ZM389.948 189.938C389.948 188.721 390.623 187.725 391.448 187.725C393.211 187.725 392.986 191.138 391.183 191.739C390.504 191.966 389.948 191.155 389.948 189.938ZM351.354 190.204C350.252 189.102 350.522 185.601 351.708 185.601C352.292 185.601 352.77 186.796 352.77 188.256C352.77 191.037 352.525 191.374 351.354 190.204ZM394.197 188.85C394.197 187.716 394.675 186.493 395.26 186.132C395.862 185.759 396.322 186.652 396.322 188.193C396.322 189.688 395.844 190.912 395.26 190.912C394.675 190.912 394.197 189.984 394.197 188.85ZM397.384 186.788C397.384 185.62 397.862 184.368 398.446 184.007C399.031 183.646 399.509 184.307 399.509 185.475C399.509 186.644 399.031 187.895 398.446 188.256C397.862 188.617 397.384 187.957 397.384 186.788ZM348.234 187.083C347.808 186.657 347.459 185.576 347.459 184.68C347.459 183.484 347.774 183.365 348.641 184.233C349.291 184.883 349.64 185.964 349.416 186.636C349.192 187.308 348.66 187.509 348.234 187.083ZM365.517 183.034C365.517 181.248 366.1 180.289 367.184 180.289C368.292 180.289 368.738 181.064 368.512 182.596C368.012 185.997 365.517 186.361 365.517 183.034ZM369.766 182.945C369.766 181.484 370.244 180.289 370.828 180.289C371.413 180.289 371.891 181.484 371.891 182.945C371.891 184.406 371.413 185.601 370.828 185.601C370.244 185.601 369.766 184.406 369.766 182.945ZM374.015 182.945C374.015 181.484 374.493 180.289 375.077 180.289C375.661 180.289 376.139 181.484 376.139 182.945C376.139 184.406 375.661 185.601 375.077 185.601C374.493 185.601 374.015 184.406 374.015 182.945ZM358.082 182.414C358.082 181.245 358.56 180.289 359.144 180.289C359.728 180.289 360.206 181.245 360.206 182.414C360.206 183.582 359.728 184.538 359.144 184.538C358.56 184.538 358.082 183.582 358.082 182.414ZM361.268 182.414C361.268 181.234 361.976 180.289 362.862 180.289C363.747 180.289 364.455 181.234 364.455 182.414C364.455 183.594 363.747 184.538 362.862 184.538C361.976 184.538 361.268 183.594 361.268 182.414ZM377.202 182.414C377.202 181.234 377.91 180.289 378.795 180.289C379.68 180.289 380.388 181.234 380.388 182.414C380.388 183.594 379.68 184.538 378.795 184.538C377.91 184.538 377.202 183.594 377.202 182.414ZM381.627 182.35C381.822 181.016 382.619 179.715 383.399 179.458C384.362 179.14 384.702 179.768 384.461 181.416C384.266 182.75 383.468 184.051 382.689 184.308C381.726 184.625 381.386 183.998 381.627 182.35ZM391.542 182.829C393.294 181.847 395.08 180.515 395.509 179.87C396.074 179.02 396.294 179.027 396.306 179.894C396.327 181.49 394.261 183.059 391.011 183.916C388.68 184.53 388.745 184.397 391.542 182.829ZM396.773 182.699C398.447 180.682 398.529 180.05 397.323 178.451C395.972 176.658 396 176.657 397.94 178.435C399.935 180.263 399.925 180.342 397.39 182.684L394.807 185.069L396.773 182.699ZM353.833 181.352C353.833 180.183 354.311 179.227 354.895 179.227C355.479 179.227 355.957 180.183 355.957 181.352C355.957 182.52 355.479 183.476 354.895 183.476C354.311 183.476 353.833 182.52 353.833 181.352ZM385.891 181.169C386.078 179.901 386.765 178.687 387.419 178.472C388.169 178.225 388.417 179.076 388.092 180.778C387.465 184.057 385.413 184.422 385.891 181.169ZM349.584 180.289C349.584 179.109 350.292 178.165 351.177 178.165C352.062 178.165 352.77 179.109 352.77 180.289C352.77 181.47 352.062 182.414 351.177 182.414C350.292 182.414 349.584 181.47 349.584 180.289ZM347.194 180.739C346.756 180.297 346.397 178.963 346.397 177.775C346.397 176.212 346.718 175.936 347.559 176.777C348.198 177.416 348.556 178.75 348.356 179.741C348.155 180.732 347.632 181.181 347.194 180.739ZM389.948 179.227C389.948 178.059 390.426 177.103 391.011 177.103C391.595 177.103 392.073 178.059 392.073 179.227C392.073 180.396 391.595 181.352 391.011 181.352C390.426 181.352 389.948 180.396 389.948 179.227ZM343.976 177.813C342.792 174.803 342.985 173.266 344.372 174.653C345.011 175.292 345.356 176.702 345.138 177.787C344.755 179.688 344.714 179.689 343.976 177.813ZM369.567 178.502C370.334 178.195 371.25 178.232 371.603 178.585C371.956 178.938 371.328 179.189 370.209 179.143C368.971 179.092 368.72 178.841 369.567 178.502ZM393.135 177.759C393.135 176.883 393.613 175.87 394.197 175.509C394.782 175.148 395.26 175.57 395.26 176.446C395.26 177.323 394.782 178.335 394.197 178.696C393.613 179.057 393.135 178.636 393.135 177.759ZM362.616 176.367C363.65 176.097 365.084 176.115 365.803 176.406C366.522 176.697 365.677 176.917 363.924 176.896C362.171 176.874 361.583 176.636 362.616 176.367ZM356.82 175.315C357.587 175.008 358.503 175.046 358.856 175.399C359.209 175.752 358.582 176.003 357.462 175.957C356.225 175.906 355.973 175.654 356.82 175.315ZM345.199 173.119C343.878 171.435 343.916 171.397 345.6 172.718C347.37 174.106 347.933 174.978 347.058 174.978C346.838 174.978 346.001 174.142 345.199 173.119ZM349.318 173.308C347.712 172.437 346.397 171.277 346.397 170.731C346.397 169.961 352.255 172.683 354.806 174.639C356.209 175.714 351.767 174.637 349.318 173.308ZM365.517 172.854C365.517 171.685 365.995 170.729 366.579 170.729C367.164 170.729 367.642 171.685 367.642 172.854C367.642 174.022 367.164 174.978 366.579 174.978C365.995 174.978 365.517 174.022 365.517 172.854ZM368.892 173.207C369.408 170.543 371.891 170.177 371.891 172.765C371.891 174.07 371.205 174.978 370.219 174.978C369.23 174.978 368.688 174.256 368.892 173.207ZM372.953 172.854C372.953 171.674 373.661 170.729 374.546 170.729C375.431 170.729 376.139 171.674 376.139 172.854C376.139 174.034 375.431 174.978 374.546 174.978C373.661 174.978 372.953 174.034 372.953 172.854ZM377.202 172.854C377.202 171.685 377.874 170.729 378.696 170.729C379.667 170.729 379.995 171.473 379.634 172.854C379.328 174.022 378.656 174.978 378.14 174.978C377.624 174.978 377.202 174.022 377.202 172.854ZM381.451 172.323C381.451 170.862 381.929 169.667 382.513 169.667C383.097 169.667 383.575 170.862 383.575 172.323C383.575 173.783 383.097 174.978 382.513 174.978C381.929 174.978 381.451 173.783 381.451 172.323ZM357.728 173.208C357.338 172.818 357.019 171.584 357.019 170.464C357.019 167.709 359.585 168.69 360.014 171.609C360.343 173.843 359.177 174.658 357.728 173.208ZM361.268 171.792C361.268 170.623 361.746 169.667 362.331 169.667C362.915 169.667 363.393 170.623 363.393 171.792C363.393 172.96 362.915 173.916 362.331 173.916C361.746 173.916 361.268 172.96 361.268 171.792ZM385.265 173.01C384.957 172.512 385.392 171.198 386.231 170.089C387.676 168.18 387.758 168.227 387.79 170.995C387.823 173.799 386.436 174.905 385.265 173.01ZM353.479 172.146C353.089 171.756 352.77 170.521 352.77 169.402C352.77 166.647 355.336 167.628 355.765 170.547C356.094 172.78 354.928 173.595 353.479 172.146ZM388.886 170.729C388.886 169.549 389.594 168.605 390.48 168.605C391.365 168.605 392.073 169.549 392.073 170.729C392.073 171.91 391.365 172.854 390.48 172.854C389.594 172.854 388.886 171.91 388.886 170.729ZM393.135 169.73C393.135 168.596 393.613 167.373 394.197 167.012C394.8 166.639 395.26 167.532 395.26 169.073C395.26 170.568 394.782 171.792 394.197 171.792C393.613 171.792 393.135 170.864 393.135 169.73ZM349.584 168.605C349.584 167.436 350.062 166.48 350.646 166.48C351.23 166.48 351.708 167.436 351.708 168.605C351.708 169.773 351.23 170.729 350.646 170.729C350.062 170.729 349.584 169.773 349.584 168.605ZM115.438 167.998C113.785 166.345 113.205 164.356 114.376 164.356C114.71 164.356 115.7 165.073 116.576 165.949C118.956 168.329 168.77 168.329 169.683 165.949C170.467 163.905 172.192 163.88 172.192 165.912C172.192 169.143 168.064 169.667 142.595 169.667C120.841 169.667 116.863 169.423 115.438 167.998ZM347.627 166.48C347.627 165.02 347.868 164.422 348.163 165.153C348.458 165.883 348.458 167.078 348.163 167.808C347.868 168.539 347.627 167.941 347.627 166.48ZM363.194 167.879C363.96 167.572 364.877 167.61 365.23 167.963C365.582 168.316 364.955 168.567 363.835 168.521C362.598 168.47 362.346 168.218 363.194 167.879ZM397.552 166.48C397.552 165.02 397.793 164.422 398.088 165.153C398.382 165.883 398.382 167.078 398.088 167.808C397.793 168.539 397.552 167.941 397.552 166.48ZM357.875 164.995C349.19 162.656 347.577 159.26 354.076 156.995C355.869 156.37 357.504 155.858 357.709 155.858C357.914 155.858 358.082 157.77 358.082 160.107C358.082 163.892 358.362 164.356 360.649 164.356C362.061 164.356 363.495 163.759 363.835 163.028C364.331 161.966 364.579 161.966 365.075 163.028C365.415 163.759 366.571 164.356 367.642 164.356C368.713 164.356 369.868 163.759 370.209 163.028C370.704 161.966 370.952 161.966 371.448 163.028C372.298 164.849 376.025 164.693 383.002 162.544C388.59 160.823 390.466 158.797 387.558 157.624C386.828 157.329 387.454 157.05 388.949 157.004C390.444 156.958 392.595 157.609 393.729 158.452C396.723 160.675 394.593 163.525 388.784 165.067C382.566 166.719 364.118 166.675 357.875 164.995ZM209.402 164.117C206.223 162.439 201.934 156.325 201.934 153.472C201.934 149.839 205.307 144.132 208.398 142.534C213.211 140.045 218.434 140.568 222.12 143.908C227.829 149.082 228.117 157.093 222.775 162.112C219.672 165.027 213.017 166.025 209.402 164.117ZM276.692 163.943C272.115 161.881 269.917 158.324 269.917 152.983C269.917 146.531 274.066 142.039 280.719 141.289C285.17 140.787 285.949 141.059 289.392 144.315C294.681 149.315 295.065 155.976 290.365 161.189C286.896 165.037 281.523 166.119 276.692 163.943ZM395.654 163.599C396.752 162.3 397.352 160.493 396.994 159.56C396.619 158.584 396.789 158.146 397.396 158.521C399.132 159.594 398.59 161.781 396.056 163.926L393.666 165.949L395.654 163.599ZM348.551 162.798C347.84 161.942 347.423 160.762 347.624 160.178C347.826 159.593 348.543 160.294 349.218 161.735C350.618 164.723 350.416 165.045 348.551 162.798ZM166.655 159.444C159.635 154.449 154.277 144.618 154.18 136.557C154.139 133.066 154.47 132.584 157.348 131.952C159.116 131.564 162.988 129.614 165.953 127.619C172.113 123.473 172.491 123.386 174.385 125.668C176.081 127.711 185.308 132.489 187.559 132.489C191.727 132.489 187.425 147.26 181.105 154.643C178.028 158.237 172.659 162.232 170.904 162.232C170.722 162.232 168.81 160.977 166.655 159.444ZM177.218 156.387C182.393 151.957 187.077 143.111 187.028 137.857C186.995 134.321 186.609 133.9 180.92 131.189C177.58 129.598 174.113 127.753 173.215 127.089C171.922 126.132 170.59 126.552 166.801 129.109C164.172 130.883 160.685 132.671 159.053 133.08C155.013 134.094 154.565 135.966 156.723 142.812C158.048 147.015 160.122 150.263 164.111 154.381C167.161 157.53 170.38 160.107 171.264 160.107C172.148 160.107 174.827 158.433 177.218 156.387ZM168.813 148.157C168.57 146.446 167.644 145.672 165.553 145.431C163.106 145.149 162.632 144.588 162.632 141.979C162.632 139.224 163.002 138.863 165.818 138.863C168.509 138.863 169.005 138.449 169.005 136.207C169.005 134.082 169.536 133.551 171.661 133.551C173.785 133.551 174.316 134.082 174.316 136.207C174.316 138.331 174.847 138.863 176.972 138.863C179.214 138.863 179.627 139.358 179.627 142.049C179.627 144.74 179.214 145.236 176.972 145.236C174.847 145.236 174.316 145.767 174.316 147.891C174.316 151.542 169.328 151.783 168.813 148.157ZM103.513 158.733C100.442 154.822 96.4237 145.555 97.0689 143.874C97.5819 142.537 120.516 130.365 122.522 130.365C122.946 130.365 124.488 132.722 125.948 135.603C128.04 139.731 129.226 140.914 131.543 141.18L134.483 141.518V151.078V160.638L119.977 160.933C105.85 161.22 105.42 161.163 103.513 158.733ZM132.889 151.078V143.111H119.08H105.271V151.078V159.045H119.08H132.889V151.078ZM110.582 152.229C110.582 151.401 109.985 150.445 109.255 150.104C108.192 149.609 108.192 149.361 109.255 148.865C109.985 148.524 110.582 147.568 110.582 146.741C110.582 145.913 111.299 145.236 112.176 145.236C113.052 145.236 113.769 145.913 113.769 146.741C113.769 147.568 114.367 148.524 115.097 148.865C116.159 149.361 116.159 149.609 115.097 150.104C114.367 150.445 113.769 151.401 113.769 152.229C113.769 153.057 113.052 153.734 112.176 153.734C111.299 153.734 110.582 153.057 110.582 152.229ZM104.209 152.14C104.209 150.488 103.607 149.485 102.616 149.485C100.731 149.485 100.653 149.997 102.122 152.741C103.6 155.503 104.209 155.328 104.209 152.14ZM103.585 143.643C104.939 142.182 107.035 140.987 108.244 140.987C111.701 140.987 123.329 135.558 123.329 133.944C123.329 133.144 122.843 132.489 122.249 132.489C119.863 132.489 97.7926 144.307 98.3858 145.267C99.424 146.947 100.971 146.463 103.585 143.643ZM126.516 139.925C126.516 138.582 124.345 138.582 122.267 139.925C121.025 140.727 121.318 140.958 123.595 140.971C125.201 140.98 126.516 140.509 126.516 139.925ZM368.99 160.433C370.023 160.164 371.457 160.182 372.176 160.473C372.896 160.764 372.05 160.984 370.297 160.962C368.545 160.941 367.956 160.703 368.99 160.433ZM138.2 159.045C138.2 158.399 142.959 157.983 150.353 157.983C157.309 157.983 162.787 158.437 163.163 159.045C163.587 159.731 159.279 160.107 151.01 160.107C143.178 160.107 138.2 159.694 138.2 159.045ZM375.608 158.868C376.777 158.221 378.712 156.921 379.908 155.979C381.105 155.036 380.739 155.579 379.095 157.186C377.451 158.793 375.516 160.093 374.795 160.075C374.074 160.057 374.44 159.514 375.608 158.868ZM359.608 155.593L356.488 152.14L359.941 155.26C363.158 158.168 363.881 159.045 363.06 159.045C362.878 159.045 361.324 157.491 359.608 155.593ZM380.388 158.638C380.388 158.414 381.345 157.98 382.514 157.674C383.684 157.369 384.372 157.552 384.045 158.082C383.473 159.007 380.388 159.476 380.388 158.638ZM362.261 155.105C357.54 151.133 354.946 144.912 354.918 137.492C354.896 131.56 357.518 124.06 360.191 122.407C360.783 122.041 361.268 121.208 361.268 120.557C361.268 119.905 359.954 120.531 358.347 121.947L355.426 124.522L358.082 121.336C359.542 119.583 360.883 117.924 361.061 117.649C361.238 117.374 361.741 117.726 362.177 118.432C362.747 119.354 363.947 119.435 366.44 118.72C379.082 115.094 389.218 134.453 382.339 149.087C378.169 157.957 368.939 160.724 362.261 155.105ZM373.988 155.062C373.973 154.623 372.294 151.649 370.257 148.451C366.763 142.966 366.67 142.594 368.629 141.869C369.77 141.447 371.504 139.881 372.482 138.389C373.46 136.897 375.16 135.676 376.262 135.676C377.556 135.676 378.264 134.925 378.264 133.551C378.264 132.157 377.556 131.427 376.202 131.427C375.068 131.427 373.845 130.949 373.484 130.365C373.112 129.762 374.004 129.303 375.546 129.303C377.527 129.303 378.264 128.744 378.264 127.243C378.264 125.635 377.276 125.036 373.749 124.507C371.267 124.135 367.323 123.986 364.986 124.177C361.568 124.455 360.737 124.936 360.737 126.637C360.737 128.126 361.679 128.952 363.924 129.432L367.111 130.113L364.156 130.239C358.418 130.483 359.515 135.621 365.314 135.66C366.676 135.669 367.475 136.148 367.111 136.738C366.749 137.322 365.048 137.8 363.33 137.8C358.892 137.8 359.225 140.743 364.603 149.06C367.963 154.255 369.591 155.858 371.507 155.858C372.887 155.858 374.003 155.5 373.988 155.062ZM383.575 154.796C383.575 154.212 384.559 153.734 385.762 153.734C386.965 153.734 387.654 154.212 387.293 154.796C386.932 155.38 385.948 155.858 385.106 155.858C384.264 155.858 383.575 155.38 383.575 154.796ZM143.809 151.889C146.602 151.67 150.904 151.673 153.369 151.894C155.834 152.117 153.55 152.297 148.292 152.294C143.033 152.291 141.016 152.109 143.809 151.889ZM383.112 151.298C383.511 150.25 384.105 149.661 384.432 149.988C384.759 150.315 384.433 151.172 383.707 151.893C382.658 152.934 382.536 152.812 383.112 151.298ZM385.7 151.078C385.7 150.067 386.717 149.485 388.485 149.485C390.841 149.485 391.067 149.731 389.948 151.078C389.221 151.954 387.968 152.671 387.163 152.671C386.358 152.671 385.7 151.954 385.7 151.078ZM355.382 150.476C354.997 149.853 354.91 149.116 355.188 148.837C355.467 148.559 355.978 149.069 356.324 149.97C357.042 151.842 356.43 152.171 355.382 150.476ZM386.992 147.184C387.249 146.405 388.551 145.607 389.884 145.412C391.532 145.171 392.16 145.511 391.842 146.474C391.586 147.254 390.284 148.051 388.95 148.246C387.302 148.488 386.675 148.147 386.992 147.184ZM385.867 143.111C385.867 141.651 386.108 141.053 386.403 141.784C386.698 142.514 386.698 143.709 386.403 144.439C386.108 145.169 385.867 144.572 385.867 143.111ZM139.263 143.111C139.263 142.522 142.074 142.049 145.573 142.049C149.044 142.049 152.179 142.527 152.54 143.111C152.953 143.778 150.604 144.174 146.23 144.174C142.293 144.174 139.263 143.712 139.263 143.111ZM388.054 142.935C388.311 142.156 389.613 141.358 390.947 141.163C392.594 140.922 393.222 141.263 392.905 142.225C392.648 143.005 391.346 143.802 390.013 143.997C388.365 144.239 387.737 143.898 388.054 142.935ZM387.824 138.986C387.824 138.47 389.019 137.82 390.48 137.54C392.26 137.2 393.135 137.509 393.135 138.479C393.135 139.313 392.012 139.925 390.48 139.925C389.019 139.925 387.824 139.502 387.824 138.986ZM385.867 134.614C385.867 133.153 386.108 132.556 386.403 133.286C386.698 134.016 386.698 135.211 386.403 135.941C386.108 136.672 385.867 136.074 385.867 134.614ZM129.703 134.614C129.703 133.976 133.951 133.551 140.325 133.551C146.698 133.551 150.947 133.976 150.947 134.614C150.947 135.251 146.698 135.676 140.325 135.676C133.951 135.676 129.703 135.251 129.703 134.614ZM387.824 134.614C387.824 134.029 389.019 133.551 390.48 133.551C391.94 133.551 393.135 134.029 393.135 134.614C393.135 135.198 391.94 135.676 390.48 135.676C389.019 135.676 387.824 135.198 387.824 134.614ZM352.854 131.87C352.905 130.632 353.157 130.38 353.496 131.228C353.803 131.995 353.765 132.911 353.412 133.264C353.059 133.617 352.808 132.989 352.854 131.87ZM387.47 131.781C386.026 130.337 386.838 129.302 389.417 129.302C391.07 129.302 392.073 129.904 392.073 130.896C392.073 132.489 388.806 133.117 387.47 131.781ZM113.769 111.457C113.769 98.1674 114.148 92.1706 115.044 91.2747C115.966 90.352 123.569 90 142.575 90C157.016 90 169.587 90.2901 170.511 90.6448C171.932 91.1899 172.192 93.57 172.192 106.047C172.192 115.177 171.787 120.805 171.129 120.805C170.474 120.805 170.067 115.31 170.067 106.446V92.088L143.246 92.3718L116.425 92.6556L116.135 111.51C115.96 122.877 115.432 130.365 114.807 130.365C114.17 130.365 113.769 123.056 113.769 111.457ZM383.701 127.482C382.219 123.905 376.53 117.618 374.774 117.618C374.162 117.618 373.938 117.341 374.277 117.002C374.616 116.663 376.082 117.165 377.535 118.117C379.575 119.454 380.279 119.538 380.629 118.488C380.984 117.423 381.64 117.396 383.657 118.364L386.231 119.599L383.272 119.671C380.54 119.737 380.411 119.925 381.591 122.13C382.379 123.601 383.038 124.008 383.31 123.192C383.838 121.61 387.424 121.423 388.355 122.929C388.727 123.532 387.835 123.991 386.293 123.991C383.372 123.991 383.018 124.672 384.637 127.178C385.509 128.527 385.67 128.475 385.683 126.839C385.695 125.462 386.364 125.004 388.006 125.245C391.349 125.737 391.788 128.24 388.532 128.24C387.072 128.24 385.69 128.801 385.462 129.485C385.233 130.17 384.441 129.269 383.701 127.482ZM122.267 126.116C122.267 125.445 129.703 125.054 142.449 125.054C155.196 125.054 162.632 125.445 162.632 126.116C162.632 126.787 155.196 127.178 142.449 127.178C129.703 127.178 122.267 126.787 122.267 126.116ZM149.12 117.898C151.913 117.679 156.215 117.681 158.68 117.903C161.146 118.126 158.861 118.305 153.603 118.302C148.345 118.299 146.328 118.118 149.12 117.898ZM363.986 116.455C364.313 115.926 366.544 115.493 368.944 115.493C374.337 115.493 373.888 116.076 367.907 116.84C365.331 117.168 363.647 117.003 363.986 116.455ZM126.516 113.44C126.516 110.673 126.116 110.182 123.86 110.182C121.736 110.182 121.205 109.651 121.205 107.527C121.205 105.402 121.736 104.871 123.86 104.871C125.985 104.871 126.516 104.34 126.516 102.216C126.516 99.9731 127.012 99.5601 129.703 99.5601C132.393 99.5601 132.889 99.9731 132.889 102.216C132.889 104.34 133.42 104.871 135.545 104.871C137.669 104.871 138.2 105.402 138.2 107.527C138.2 109.632 137.665 110.182 135.615 110.182C133.585 110.182 132.958 110.809 132.694 113.103C132.43 115.398 131.731 116.097 129.437 116.361C126.812 116.663 126.516 116.366 126.516 113.44ZM149.12 110.462C151.913 110.243 156.215 110.246 158.68 110.468C161.146 110.691 158.861 110.871 153.603 110.868C148.345 110.865 146.328 110.682 149.12 110.462ZM144.574 103.809C144.574 103.184 148.292 102.747 153.603 102.747C158.914 102.747 162.632 103.184 162.632 103.809C162.632 104.434 158.914 104.871 153.603 104.871C148.292 104.871 144.574 104.434 144.574 103.809Z" fill="black"/>
</svg>
