<svg width="512" height="512" viewBox="0 0 512 512" fill="none" xmlns="http://www.w3.org/2000/svg">
<path d="M252.182 422.356C242.134 419.916 234.752 411.693 232.899 400.875L231.866 394.844L226.695 393.788C218.083 392.03 204.33 387.351 195.046 383.022C180.422 376.203 168.838 367.873 155.815 354.811C138.756 337.701 128.872 321.739 121.666 299.661L118.131 288.831L112.356 288.29C99.1507 287.053 89.4472 277.706 88.142 264.964C87.5377 259.064 88.8414 254.027 92.443 248.348C95.865 242.952 101.07 239.417 108.465 237.467L114.129 235.974L117.269 225.037C125.561 196.161 138.411 173.734 157.702 154.471C177.367 134.836 199.286 123.049 227.68 116.843C229.895 116.359 230.156 115.814 230.619 110.707C231.436 101.697 237.518 93.354 246.009 89.5979C251.073 87.3579 261.437 87.4948 266.699 89.8713C275.135 93.6808 281.417 102.699 281.802 111.552L282.003 116.16L290.419 118.166C299.261 120.273 312.09 125.008 320.724 129.349C326.917 132.463 342.237 142.452 344.892 145.107C348.516 148.731 346.373 155.403 341.584 155.403C340.586 155.403 336.428 153.072 332.343 150.224C317.585 139.934 302.511 133.018 286.609 129.242L278.628 127.346L274.775 131.277C269.268 136.895 263.974 139.074 255.988 139.009C248.053 138.945 242.227 136.451 237.319 131.018L233.964 127.305L229.141 128.433C176.79 140.672 138.466 180.079 128.295 232.128C126.721 240.18 126.726 240.415 128.46 241.376C129.439 241.919 131.457 243.65 132.945 245.223C141.878 254.668 141.727 270.111 132.601 280.506C130.013 283.453 129.657 284.426 130.169 287.153C131.281 293.082 134.549 302.058 139.049 311.544C156.484 348.298 189.84 374.241 230.403 382.598L235.556 383.659L240.271 379.115C250.755 369.01 266.335 368.998 276.615 379.087L280.595 382.993L285.989 381.791C321.829 373.804 355.599 347.154 372.562 313.471C376.086 306.473 383.096 286.523 383.119 283.429C383.127 282.377 381.693 280.121 379.934 278.416C374.897 273.534 372.627 267.228 373.064 259.336C373.506 251.363 375.472 246.986 381.047 241.568L385.197 237.535L383.638 229.768C379.947 211.386 371.137 191.895 359.726 176.865C353.097 168.133 351.824 164.329 354.726 161.921C357.66 159.485 361.012 160.555 365.306 165.297C378.426 179.789 390.694 205.212 394.903 226.631L396.422 234.365L401.745 234.967C419.609 236.988 429.237 256.128 420.804 272.851C416.639 281.109 409.058 285.808 399.898 285.808H394.536L392.96 292.095C388.963 308.029 379.679 326.946 368.914 341.087C349.815 366.177 320.967 385.222 291.15 392.426C284.496 394.034 284.397 394.102 284.397 397.07C284.397 401.48 282.085 408.431 279.263 412.502C275.884 417.378 270.539 420.868 264.147 422.372C257.902 423.842 258.307 423.843 252.182 422.356ZM264.481 410.043C268.535 408.119 271.411 404.088 272.032 399.459C272.698 394.493 271.831 391.668 268.464 387.833C259.631 377.773 243.267 385.109 244.558 398.55C245.533 408.698 255.364 414.369 264.481 410.043ZM121.167 274.635C127.468 270.793 129.685 262.744 126.28 256.067C124.077 251.747 120.572 249.369 115.575 248.806C100.757 247.136 93.9838 266.875 106.712 274.635C110.697 277.065 117.181 277.065 121.167 274.635ZM405.532 272.531C414.335 266.599 414.394 253.468 405.641 248.316C401.869 246.096 394.663 246.194 390.854 248.516C387.481 250.573 384.064 256.516 384.064 260.327C384.064 261.722 384.899 264.589 385.919 266.697C389.47 274.032 399.068 276.887 405.532 272.531ZM263.496 125.561C266.946 123.429 270.428 117.092 270.42 112.96C270.414 109.455 266.904 103.653 263.385 101.334C260.074 99.151 253.724 98.9515 249.935 100.911C245.178 103.371 242.481 107.9 242.481 113.431C242.481 124.43 254.294 131.248 263.496 125.561ZM209.838 360.557C209.783 354.747 208.507 352.111 202.874 346.166C177.542 319.432 169.401 310.253 167.633 306.429C165.734 302.321 165.622 300.543 165.357 270.247C165.054 235.439 165.283 233.688 170.398 231.743C174.954 230.01 178.222 230.676 181.564 234.018L184.731 237.185V258.129V279.073L182.357 280.628C177.297 283.944 174.969 291.376 177.174 297.176C177.629 298.372 183.499 305.379 190.22 312.746C198.703 322.047 202.766 327.237 203.512 329.727C204.48 332.957 204.895 333.312 207.699 333.312C210.498 333.312 210.812 333.046 210.812 330.664C210.812 326.236 207.141 320.94 195.21 308.155C184.699 296.892 183.799 295.645 183.799 292.333C183.799 288.024 187.078 284.876 191.566 284.876C194.053 284.876 197.37 287.808 217.124 307.464C229.609 319.888 240.946 331.938 242.317 334.244C244.652 338.17 244.83 339.275 245.13 351.709L245.45 364.982H227.665H209.88L209.838 360.557ZM276.945 352.59C276.945 335.215 276.373 336.138 304.67 307.93C324.819 287.843 328.164 284.876 330.655 284.876C335.178 284.876 338.422 288.021 338.422 292.406C338.422 295.682 337.695 296.845 331.628 303.283C327.891 307.247 322.757 312.705 320.218 315.41C314.737 321.249 311.41 327.011 311.41 330.664C311.41 333.046 311.723 333.312 314.522 333.312C317.326 333.312 317.741 332.957 318.709 329.727C319.455 327.237 323.518 322.047 332.002 312.746C338.722 305.379 344.592 298.372 345.047 297.176C347.252 291.376 344.924 283.944 339.864 280.628L337.491 279.073V258.732C337.491 246.09 337.873 237.551 338.501 236.172C340.645 231.467 347.226 229.576 352.309 232.205C356.97 234.615 357.168 236.279 356.865 270.511C356.587 301.974 356.576 302.128 354.284 306.751C352.262 310.832 344.046 320.101 319.347 346.166C313.714 352.111 312.438 354.747 312.383 360.557L312.341 364.982H294.643H276.945V352.59ZM250.24 288.327C239.363 283.845 231.444 278.342 222.928 269.346C205.405 250.834 196.459 226.257 194.506 191.264C194.192 185.629 194.284 179.132 194.712 176.826L195.489 172.635L202.452 172.03C211.751 171.222 216.816 169.969 226.407 166.102C235.138 162.581 244.267 157.486 253.474 150.995C256.702 148.719 259.91 147.075 260.603 147.34C261.296 147.606 265.684 150.397 270.354 153.542C286.801 164.619 306.27 172.146 318.514 172.163C321.646 172.167 323.695 172.657 324.466 173.585C326.055 175.5 325.127 202.27 323.086 213.397C316.226 250.792 298.606 275.838 270.542 288.083C261.706 291.938 259.083 291.97 250.24 288.327ZM274.257 281.588C285.016 276.118 298.44 263.327 304.705 252.576C315.112 234.719 320.724 212.169 320.724 188.209V177.009L314.903 176.344C300.924 174.745 283.439 167.676 268.207 157.464L259.934 151.918L251.906 157.32C236.448 167.723 221.413 173.948 206.853 175.974L198.703 177.109V184.321C198.703 200.12 201.483 218.504 205.849 231.566C214.803 258.353 230.716 275.939 254.512 285.343L259.713 287.398L265.408 285.295C268.541 284.138 272.523 282.47 274.257 281.588ZM253.208 275.089C245.436 271.894 235.673 265 230.527 259.072C216.27 242.647 208.089 218.473 208.036 192.61L208.017 183.71L215.236 182.499C226.944 180.535 239.614 175.139 252.855 166.479L259.968 161.827L267.758 166.883C272.043 169.664 277.754 173.049 280.45 174.405C287.541 177.97 300.865 182.254 307.169 182.995L312.612 183.635L312.018 194.435C310.372 224.374 302.587 245.171 287.192 260.755C280.642 267.385 277.77 269.517 270.563 273.097C265.772 275.477 261.162 277.414 260.317 277.402C259.473 277.39 256.274 276.349 253.208 275.089ZM254.246 242.247C255.553 241.398 287.203 200.234 287.855 198.537C288.727 196.264 285.495 192.661 282.585 192.661C280.168 192.661 278.388 194.621 265.675 211.291C257.861 221.537 251.227 229.917 250.933 229.915C250.639 229.912 247.514 227.606 243.987 224.792C240.461 221.977 237.096 219.674 236.51 219.674C234.137 219.674 231.304 222.642 231.304 225.129C231.304 227.246 232.926 228.991 240.782 235.322C249.905 242.674 251.961 243.732 254.246 242.247Z" fill="black"/>
</svg>
