<?xml version="1.0" encoding="UTF-8"?>
<svg xmlns="http://www.w3.org/2000/svg" xmlns:xlink="http://www.w3.org/1999/xlink" width="424.58pt" height="555pt" viewBox="0 0 424.58 555" version="1.1">
<defs>
<clipPath id="clip1">
  <path d="M 1 483 L 424.578125 483 L 424.578125 555 L 1 555 Z M 1 483 "/>
</clipPath>
</defs>
<g id="surface1">
<g clip-path="url(#clip1)" clip-rule="nonzero">
<path style=" stroke:none;fill-rule:nonzero;fill:rgb(15.299988%,39.199829%,20.399475%);fill-opacity:1;" d="M 75.136719 488.171875 C 74.332031 488.277344 73.171875 488.480469 71.632813 488.785156 C 70.863281 488.886719 70.117188 489.085938 69.425781 489.40625 C 68.71875 489.710938 68.066406 490.152344 67.484375 490.710938 C 66.953125 491.113281 66.472656 491.691406 66.078125 492.445313 C 65.6875 493.210938 65.371094 494.15625 65.132813 495.269531 C 64.914063 496.335938 64.761719 497.648438 64.652344 499.234375 C 64.554688 500.816406 64.507813 502.675781 64.507813 504.800781 L 64.507813 555 L 56.667969 555 L 17.746094 500.648438 L 17.746094 533.601563 C 17.746094 535.6875 17.804688 537.492188 17.933594 539.03125 C 18.066406 540.570313 18.234375 541.871094 18.472656 542.929688 C 18.6875 544.003906 19 544.921875 19.398438 545.742188 C 19.804688 546.527344 20.273438 547.195313 20.804688 547.703125 C 21.207031 548.050781 21.730469 548.390625 22.371094 548.695313 C 22.996094 549.015625 23.730469 549.320313 24.597656 549.621094 C 25.453125 549.875 26.238281 550.09375 26.9375 550.300781 C 27.636719 550.488281 28.238281 550.640625 28.742188 550.742188 L 28.742188 554.59375 L 1.898438 554.59375 L 1.898438 550.742188 C 2.472656 550.6875 3.085938 550.585938 3.738281 550.457031 C 4.378906 550.335938 5.078125 550.183594 5.84375 550.027344 C 6.5625 549.820313 7.242188 549.566406 7.855469 549.273438 C 8.503906 548.96875 9.042969 548.609375 9.542969 548.203125 C 10.121094 547.75 10.621094 547.15625 11.023438 546.449219 C 11.414063 545.742188 11.703125 544.910156 11.886719 543.949219 C 12.109375 542.976563 12.273438 541.683594 12.359375 540.058594 C 12.472656 538.4375 12.527344 536.492188 12.527344 534.214844 L 12.527344 500.949219 C 12.527344 500.089844 12.472656 499.277344 12.359375 498.484375 C 12.273438 497.703125 12.109375 496.949219 11.886719 496.175781 C 11.660156 495.476563 11.382813 494.816406 11.023438 494.183594 C 10.65625 493.585938 10.214844 492.992188 9.734375 492.4375 C 9.230469 491.878906 8.691406 491.363281 8.101563 490.925781 C 7.523438 490.472656 6.875 490.097656 6.210938 489.792969 C 4.863281 489.1875 3.324219 488.6875 1.625 488.277344 L 1.625 484.320313 L 25.136719 484.320313 L 59.28125 531.878906 L 59.28125 505.3125 C 59.28125 503.183594 59.222656 501.320313 59.09375 499.75 C 58.96875 498.175781 58.800781 496.894531 58.5625 495.878906 C 58.289063 494.816406 57.96875 493.902344 57.5625 493.125 C 57.15625 492.371094 56.667969 491.726563 56.136719 491.210938 C 55.722656 490.859375 55.214844 490.511719 54.582031 490.164063 C 53.957031 489.847656 53.195313 489.539063 52.34375 489.285156 C 51.523438 489.039063 50.796875 488.820313 50.117188 488.613281 C 49.449219 488.425781 48.832031 488.277344 48.285156 488.171875 L 48.285156 484.320313 L 75.136719 484.320313 Z M 146.789063 554.59375 L 112.71875 554.59375 L 112.71875 550.742188 C 113.53125 550.6875 114.390625 550.574219 115.351563 550.386719 C 116.277344 550.199219 117.265625 549.980469 118.296875 549.722656 C 120.476563 549.222656 121.558594 548.609375 121.558594 547.910156 C 121.558594 547.75 121.558594 547.601563 121.53125 547.449219 C 121.53125 547.296875 121.511719 547.144531 121.457031 546.988281 C 121.457031 546.78125 121.417969 546.582031 121.355469 546.363281 C 121.269531 546.164063 121.195313 545.929688 121.101563 545.667969 L 115.777344 531.074219 L 94.238281 531.074219 C 93.984375 531.726563 93.710938 532.460938 93.425781 533.265625 C 93.152344 534.058594 92.851563 534.917969 92.539063 535.839844 C 92.257813 536.746094 91.984375 537.609375 91.730469 538.417969 C 91.472656 539.230469 91.226563 539.992188 91.003906 540.703125 C 90.738281 541.609375 90.5 542.390625 90.339844 543.050781 C 90.152344 543.710938 90.058594 544.25 90.019531 544.648438 C 89.964844 545.0625 89.925781 545.417969 89.878906 545.703125 C 89.839844 546.007813 89.832031 546.222656 89.832031 546.375 C 89.832031 547.496094 90.546875 548.40625 91.984375 549.121094 C 92.710938 549.476563 93.65625 549.792969 94.851563 550.082031 C 96.023438 550.367188 97.445313 550.585938 99.117188 550.742188 L 99.117188 554.59375 L 73.523438 554.59375 L 73.523438 550.742188 C 73.964844 550.6875 74.464844 550.621094 75.003906 550.519531 C 75.542969 550.441406 76.136719 550.335938 76.769531 550.234375 C 77.394531 550.082031 77.941406 549.894531 78.421875 549.6875 C 78.882813 549.488281 79.289063 549.273438 79.648438 549.015625 C 80.234375 548.609375 80.789063 548.167969 81.308594 547.703125 C 81.847656 547.230469 82.316406 546.683594 82.707031 546.074219 C 83.113281 545.515625 83.492188 544.910156 83.859375 544.234375 C 84.207031 543.570313 84.519531 542.824219 84.785156 542.019531 C 86.492188 537.359375 88.199219 532.707031 89.925781 528.074219 C 91.632813 523.441406 93.339844 518.796875 95.0625 514.140625 C 96.765625 509.46875 98.570313 504.5625 100.457031 499.441406 C 102.34375 494.304688 104.296875 488.9375 106.3125 483.308594 L 115.152344 483.308594 C 120.917969 499.230469 125.414063 511.796875 128.660156 521.03125 C 130.292969 525.640625 131.785156 529.867188 133.179688 533.71875 C 134.566406 537.558594 135.839844 541.011719 136.960938 544.050781 C 137.179688 544.550781 137.398438 545.023438 137.652344 545.480469 C 137.863281 545.941406 138.125 546.375 138.40625 546.78125 C 138.71875 547.144531 139.085938 547.515625 139.492188 547.910156 C 139.902344 548.289063 140.371094 548.664063 140.925781 549.015625 C 141.332031 549.273438 141.785156 549.488281 142.257813 549.6875 C 142.757813 549.894531 143.265625 550.082031 143.804688 550.234375 C 144.335938 550.386719 144.878906 550.488281 145.355469 550.554688 C 145.863281 550.640625 146.328125 550.6875 146.789063 550.742188 Z M 113.980469 526.195313 L 104.875 500.757813 L 95.957031 526.195313 Z M 202.46875 522.351563 C 203.359375 523.054688 204.199219 523.867188 204.964844 524.78125 C 205.707031 525.695313 206.386719 526.707031 206.980469 527.820313 C 207.550781 528.941406 208.011719 530.140625 208.3125 531.40625 C 208.625 532.691406 208.777344 534.058594 208.777344 535.53125 C 208.777344 537.359375 208.59375 539.011719 208.273438 540.519531 C 207.910156 542.019531 207.425781 543.390625 206.792969 544.648438 C 206.113281 545.875 205.304688 546.957031 204.347656 547.914063 C 203.394531 548.882813 202.28125 549.722656 201.027344 550.441406 C 199.726563 551.195313 198.308594 551.839844 196.769531 552.367188 C 195.269531 552.882813 193.636719 553.328125 191.929688 553.679688 C 188.402344 554.292969 184.351563 554.59375 179.765625 554.59375 L 147.316406 554.59375 L 147.316406 550.742188 C 147.761719 550.6875 148.269531 550.621094 148.875 550.519531 C 149.441406 550.441406 150.074219 550.335938 150.746094 550.234375 C 151.414063 550.128906 152.007813 550.027344 152.488281 549.929688 C 152.988281 549.820313 153.359375 549.722656 153.628906 549.621094 C 154.175781 549.375 154.628906 549.066406 155 548.730469 C 155.355469 548.375 155.660156 548 155.871094 547.601563 C 156.054688 547.195313 156.1875 546.734375 156.292969 546.207031 C 156.386719 545.703125 156.425781 545.109375 156.425781 544.457031 L 156.425781 494.964844 C 156.425781 494.355469 156.394531 493.824219 156.332031 493.34375 C 156.273438 492.871094 156.148438 492.4375 155.972656 492.03125 C 155.792969 491.625 155.519531 491.230469 155.152344 490.871094 C 154.753906 490.523438 154.253906 490.207031 153.628906 489.898438 C 153.175781 489.691406 152.6875 489.492188 152.160156 489.304688 C 151.621094 489.132813 151.0625 488.984375 150.480469 488.886719 C 149.886719 488.730469 149.335938 488.601563 148.789063 488.5 C 148.269531 488.378906 147.761719 488.277344 147.316406 488.171875 L 147.316406 484.320313 L 181.199219 484.320313 C 185.472656 484.320313 189.15625 484.640625 192.222656 485.300781 C 195.308594 485.960938 197.789063 486.960938 199.675781 488.277344 C 201.558594 489.59375 202.988281 491.230469 203.945313 493.191406 C 204.878906 495.15625 205.347656 497.402344 205.347656 499.9375 C 205.347656 501.148438 205.253906 502.269531 205.066406 503.300781 C 204.847656 504.347656 204.53125 505.3125 204.09375 506.222656 C 203.691406 507.140625 203.171875 507.980469 202.558594 508.738281 C 201.941406 509.519531 201.246094 510.234375 200.480469 510.886719 C 199.753906 511.492188 198.96875 512.070313 198.113281 512.625 C 197.234375 513.164063 196.300781 513.679688 195.269531 514.140625 C 194.261719 514.539063 193.234375 514.945313 192.191406 515.316406 C 191.148438 515.691406 190.03125 516.003906 188.851563 516.265625 L 188.851563 517.277344 C 190.03125 517.382813 191.203125 517.585938 192.394531 517.863281 C 193.570313 518.171875 194.761719 518.542969 195.988281 519.003906 C 197.234375 519.402344 198.402344 519.878906 199.46875 520.441406 C 200.519531 521.003906 201.527344 521.636719 202.46875 522.351563 M 188.230469 501.25 C 188.230469 499.277344 187.996094 497.523438 187.539063 495.996094 C 187.050781 494.476563 186.339844 493.191406 185.359375 492.132813 C 184.351563 491.011719 183.144531 490.164063 181.671875 489.605469 C 180.214844 489.058594 178.488281 488.785156 176.519531 488.785156 C 176.246094 488.785156 175.925781 488.796875 175.5625 488.832031 C 175.199219 488.871094 174.796875 488.886719 174.355469 488.886719 C 173.90625 488.9375 173.503906 488.972656 173.121094 488.972656 C 172.769531 488.984375 172.421875 488.984375 172.101563 488.984375 L 172.101563 515.042969 L 174.355469 515.042969 C 176.734375 515.042969 178.808594 514.738281 180.574219 514.117188 C 182.332031 513.511719 183.765625 512.566406 184.898438 511.292969 C 186.023438 510.082031 186.859375 508.628906 187.410156 506.953125 C 187.957031 505.28125 188.230469 503.382813 188.230469 501.25 M 191.375 534.917969 C 191.375 532.484375 191.050781 530.328125 190.390625 528.445313 C 189.730469 526.566406 188.769531 524.980469 187.511719 523.667969 C 186.199219 522.402344 184.632813 521.4375 182.753906 520.796875 C 180.914063 520.136719 178.773438 519.8125 176.335938 519.8125 L 174.074219 519.8125 C 173.636719 519.863281 173.242188 519.894531 172.929688 519.910156 C 172.589844 519.929688 172.316406 519.964844 172.101563 520.015625 L 172.101563 545.667969 C 172.234375 546.273438 172.507813 546.835938 172.90625 547.363281 C 173.316406 547.863281 173.855469 548.355469 174.527344 548.816406 C 175.199219 549.222656 175.96875 549.527344 176.820313 549.722656 C 177.667969 549.929688 178.585938 550.027344 179.585938 550.027344 C 181.292969 550.027344 182.863281 549.6875 184.292969 549.035156 C 185.710938 548.375 186.957031 547.394531 188.042969 546.074219 C 189.125 544.757813 189.945313 543.164063 190.535156 541.289063 C 191.101563 539.4375 191.375 537.304688 191.375 534.917969 M 283.296875 554.59375 L 249.238281 554.59375 L 249.238281 550.742188 C 250.039063 550.6875 250.914063 550.574219 251.867188 550.386719 C 252.800781 550.199219 253.777344 549.980469 254.8125 549.722656 C 256.976563 549.222656 258.058594 548.609375 258.058594 547.910156 C 258.058594 547.75 258.058594 547.601563 258.042969 547.449219 C 258.042969 547.296875 258.023438 547.144531 257.976563 546.988281 C 257.976563 546.78125 257.929688 546.582031 257.871094 546.363281 C 257.789063 546.164063 257.695313 545.929688 257.609375 545.667969 L 252.292969 531.074219 L 230.765625 531.074219 C 230.492188 531.726563 230.21875 532.460938 229.933594 533.265625 C 229.671875 534.058594 229.363281 534.917969 229.050781 535.839844 C 228.773438 536.746094 228.507813 537.609375 228.253906 538.417969 C 227.992188 539.230469 227.738281 539.992188 227.527344 540.703125 C 227.246094 541.609375 227.011719 542.390625 226.859375 543.050781 C 226.671875 543.710938 226.566406 544.25 226.519531 544.648438 C 226.484375 545.0625 226.441406 545.417969 226.398438 545.703125 C 226.359375 546.007813 226.351563 546.222656 226.351563 546.375 C 226.351563 547.496094 227.066406 548.40625 228.507813 549.121094 C 229.21875 549.476563 230.179688 549.792969 231.359375 550.082031 C 232.523438 550.367188 233.949219 550.585938 235.636719 550.742188 L 235.636719 554.59375 L 210.03125 554.59375 L 210.03125 550.742188 C 210.484375 550.6875 210.984375 550.621094 211.523438 550.519531 C 212.0625 550.441406 212.644531 550.335938 213.269531 550.234375 C 213.917969 550.082031 214.441406 549.894531 214.9375 549.6875 C 215.402344 549.488281 215.804688 549.273438 216.167969 549.015625 C 216.742188 548.609375 217.308594 548.167969 217.820313 547.703125 C 218.347656 547.230469 218.816406 546.683594 219.222656 546.074219 C 219.628906 545.515625 220.015625 544.910156 220.375 544.234375 C 220.707031 543.570313 221.027344 542.824219 221.308594 542.019531 C 223.015625 537.359375 224.71875 532.707031 226.441406 528.074219 C 228.144531 523.441406 229.859375 518.796875 231.570313 514.140625 C 233.285156 509.46875 235.085938 504.5625 236.964844 499.441406 C 238.863281 494.304688 240.816406 488.9375 242.835938 483.308594 L 251.671875 483.308594 C 257.425781 499.230469 261.949219 511.796875 265.179688 521.03125 C 266.800781 525.640625 268.308594 529.867188 269.699219 533.71875 C 271.085938 537.558594 272.351563 541.011719 273.460938 544.050781 C 273.699219 544.550781 273.921875 545.023438 274.164063 545.480469 C 274.378906 545.941406 274.632813 546.375 274.90625 546.78125 C 275.238281 547.144531 275.59375 547.515625 276.011719 547.910156 C 276.417969 548.289063 276.890625 548.664063 277.4375 549.015625 C 277.839844 549.273438 278.285156 549.488281 278.777344 549.6875 C 279.265625 549.894531 279.769531 550.082031 280.324219 550.234375 C 280.855469 550.386719 281.378906 550.488281 281.878906 550.554688 C 282.378906 550.640625 282.851563 550.6875 283.296875 550.742188 Z M 250.484375 526.195313 L 241.402344 500.757813 L 232.464844 526.195313 Z M 355.476563 554.59375 L 331.589844 554.59375 C 329.523438 551.046875 327.609375 547.847656 325.871094 545.011719 C 324.132813 542.167969 322.585938 539.683594 321.21875 537.558594 C 319.878906 535.425781 318.339844 533.144531 316.648438 530.699219 C 314.941406 528.261719 313.066406 525.640625 311.042969 522.851563 L 308.617188 522.851563 L 308.617188 544.25 C 308.617188 545.46875 308.78125 546.480469 309.148438 547.296875 C 309.367188 547.703125 309.675781 548.066406 310.035156 548.421875 C 310.414063 548.761719 310.855469 549.066406 311.40625 549.320313 C 311.714844 549.476563 312.082031 549.609375 312.519531 549.722656 C 312.949219 549.84375 313.433594 549.980469 314.027344 550.128906 C 314.648438 550.28125 315.214844 550.402344 315.726563 550.507813 C 316.234375 550.609375 316.6875 550.6875 317.074219 550.742188 L 317.074219 554.59375 L 283.835938 554.59375 L 283.835938 550.742188 C 284.230469 550.6875 284.742188 550.621094 285.308594 550.542969 C 285.863281 550.457031 286.503906 550.386719 287.160156 550.335938 C 287.882813 550.234375 288.503906 550.128906 289.007813 550.007813 C 289.488281 549.90625 289.875 549.773438 290.140625 549.621094 C 290.6875 549.375 291.152344 549.066406 291.535156 548.730469 C 291.933594 548.375 292.207031 548 292.402344 547.601563 C 292.761719 546.78125 292.925781 545.777344 292.925781 544.550781 L 292.925781 494.964844 C 292.925781 494.355469 292.914063 493.824219 292.855469 493.34375 C 292.792969 492.871094 292.652344 492.4375 292.488281 492.03125 C 292.300781 491.625 292.035156 491.230469 291.660156 490.871094 C 291.273438 490.523438 290.773438 490.207031 290.140625 489.898438 C 289.679688 489.691406 289.175781 489.492188 288.609375 489.304688 C 288.035156 489.105469 287.433594 488.9375 286.800781 488.785156 C 286.183594 488.6875 285.621094 488.566406 285.121094 488.445313 C 284.628906 488.324219 284.1875 488.226563 283.835938 488.171875 L 283.835938 484.320313 L 318.800781 484.320313 C 322.710938 484.320313 326.164063 484.671875 329.144531 485.367188 C 332.117188 486.074219 334.613281 487.113281 336.632813 488.480469 C 338.714844 489.847656 340.234375 491.570313 341.253906 493.652344 C 342.273438 495.730469 342.757813 498.164063 342.757813 500.949219 C 342.757813 505.914063 341.507813 509.871094 338.988281 512.8125 C 337.714844 514.332031 336.148438 515.671875 334.226563 516.839844 C 332.347656 518.003906 330.101563 519.003906 327.535156 519.8125 C 328.523438 521.277344 329.601563 522.851563 330.777344 524.542969 C 331.957031 526.214844 333.222656 528.019531 334.566406 529.953125 C 335.867188 531.878906 337.226563 533.804688 338.59375 535.753906 C 340.007813 537.671875 341.40625 539.632813 342.851563 541.609375 C 343.300781 542.277344 343.824219 542.996094 344.433594 543.808594 C 345.03125 544.601563 345.730469 545.46875 346.546875 546.375 C 347.3125 547.296875 348.050781 548.050781 348.75 548.628906 C 349.46875 549.222656 350.105469 549.621094 350.695313 549.820313 C 351.003906 549.929688 351.378906 550.027344 351.828125 550.128906 C 352.277344 550.234375 352.761719 550.335938 353.316406 550.441406 C 354.296875 550.640625 355.015625 550.742188 355.476563 550.742188 Z M 325.550781 502.375 C 325.550781 497.703125 324.382813 494.265625 322.046875 492.03125 C 320.859375 490.960938 319.460938 490.152344 317.785156 489.605469 C 316.128906 489.058594 314.195313 488.785156 312.027344 488.785156 L 308.617188 488.785156 L 308.617188 518.289063 L 311.953125 518.289063 C 314.105469 518.289063 316.027344 517.964844 317.691406 517.3125 C 319.367188 516.664063 320.785156 515.707031 321.9375 514.433594 C 323.125 513.164063 324.03125 511.53125 324.644531 509.5 C 325.238281 507.488281 325.550781 505.105469 325.550781 502.375 M 411.878906 491.519531 C 415.664063 494.355469 418.722656 498.109375 421.0625 502.773438 C 422.242188 505.105469 423.117188 507.6875 423.710938 510.554688 C 424.300781 513.390625 424.582031 516.519531 424.582031 519.910156 C 424.582031 522.902344 424.335938 525.695313 423.824219 528.28125 C 423.308594 530.867188 422.507813 533.246094 421.429688 535.425781 C 420.398438 537.664063 419.171875 539.664063 417.785156 541.457031 C 416.390625 543.25 414.859375 544.855469 413.144531 546.273438 C 411.371094 547.703125 409.507813 548.914063 407.519531 549.941406 C 405.519531 550.992188 403.402344 551.855469 401.148438 552.566406 C 398.894531 553.222656 396.601563 553.734375 394.257813 554.074219 C 391.925781 554.425781 389.53125 554.59375 387.097656 554.59375 L 355.640625 554.59375 L 355.640625 550.742188 C 356.550781 550.742188 357.722656 550.640625 359.167969 550.441406 C 359.847656 550.335938 360.421875 550.234375 360.90625 550.128906 C 361.375 550.027344 361.734375 549.929688 361.953125 549.820313 C 362.507813 549.566406 362.953125 549.289063 363.335938 548.96875 C 363.6875 548.640625 363.992188 548.253906 364.214844 547.796875 C 364.566406 546.988281 364.757813 545.976563 364.757813 544.757813 L 364.757813 494.964844 C 364.757813 493.855469 364.566406 492.839844 364.214844 491.925781 C 364.03125 491.464844 363.746094 491.058594 363.347656 490.699219 C 362.972656 490.339844 362.507813 490 361.953125 489.691406 C 361.414063 489.4375 360.867188 489.21875 360.273438 489.023438 C 359.6875 488.832031 359.074219 488.6875 358.449219 488.578125 C 357.808594 488.480469 357.261719 488.394531 356.761719 488.347656 C 356.289063 488.277344 355.882813 488.226563 355.570313 488.171875 L 355.570313 484.320313 L 388.714844 484.320313 C 390.511719 484.320313 392.363281 484.433594 394.269531 484.691406 C 396.164063 484.945313 398.144531 485.339844 400.164063 485.847656 C 402.183594 486.347656 404.167969 487.082031 406.128906 488.039063 C 408.074219 488.984375 409.980469 490.152344 411.878906 491.519531 M 402.875 541.917969 C 403.59375 540.605469 404.222656 539.144531 404.742188 537.578125 C 405.289063 536.007813 405.707031 534.304688 406.015625 532.484375 C 406.328125 530.667969 406.589844 528.699219 406.753906 526.621094 C 406.921875 524.523438 407.007813 522.296875 407.007813 519.910156 C 407.007813 515.253906 406.566406 510.984375 405.652344 507.140625 C 405.246094 505.207031 404.714844 503.433594 404.066406 501.792969 C 403.402344 500.175781 402.636719 498.667969 401.789063 497.304688 C 400.976563 495.976563 400.027344 494.796875 398.984375 493.738281 C 397.902344 492.683594 396.730469 491.769531 395.484375 491.011719 C 394.210938 490.304688 392.871094 489.746094 391.425781 489.359375 C 389.992188 488.984375 388.453125 488.785156 386.820313 488.785156 C 386.335938 488.785156 385.785156 488.796875 385.207031 488.832031 C 384.613281 488.871094 383.980469 488.886719 383.3125 488.886719 C 382.6875 488.9375 382.132813 488.972656 381.621094 488.972656 C 381.15625 488.984375 380.746094 488.984375 380.433594 488.984375 L 380.433594 542.324219 C 380.433594 542.929688 380.460938 543.488281 380.503906 544.015625 C 380.5625 544.515625 380.65625 545.011719 380.789063 545.46875 C 380.914063 545.929688 381.113281 546.34375 381.375 546.75 C 381.621094 547.15625 381.921875 547.550781 382.234375 547.910156 C 382.601563 548.253906 382.988281 548.5625 383.382813 548.828125 C 383.8125 549.089844 384.253906 549.320313 384.761719 549.527344 C 385.261719 549.722656 385.828125 549.859375 386.445313 549.929688 C 387.078125 549.996094 387.777344 550.027344 388.546875 550.027344 C 390.199219 550.027344 391.746094 549.875 393.191406 549.535156 C 394.617188 549.222656 395.9375 548.714844 397.097656 548 C 398.308594 547.296875 399.390625 546.429688 400.355469 545.417969 C 401.300781 544.402344 402.148438 543.234375 402.875 541.917969 "/>
</g>
<path style=" stroke:none;fill-rule:nonzero;fill:rgb(15.299988%,39.199829%,20.399475%);fill-opacity:1;" d="M 301.90625 449.195313 L 312.191406 449.195313 C 312.191406 449.195313 315.675781 427.777344 329.144531 418.738281 C 342.609375 409.730469 346.601563 409.042969 355.949219 404.316406 C 390.488281 386.902344 414.339844 363.1875 415.207031 316.933594 C 415.527344 299.171875 412.914063 179.207031 412.914063 179.207031 L 411.875 109.960938 C 411.875 109.960938 384.703125 109.960938 372.371094 133.855469 C 355.625 57.203125 288.570313 0 208.128906 0 C 126.769531 0 58.855469 58.601563 42.921875 136.527344 L 42.921875 134.0625 C 30.632813 109.960938 3.339844 109.960938 3.339844 109.960938 L 2.300781 179.207031 C 2.300781 179.207031 -0.324219 299.171875 0.0351563 316.933594 C 0.867188 363.1875 24.714844 386.902344 59.261719 404.316406 C 68.613281 409.042969 72.605469 409.730469 86.0625 418.738281 C 99.539063 427.777344 103.011719 449.195313 103.011719 449.195313 L 113.308594 449.195313 C 112.289063 416.738281 78.84375 404.671875 51.613281 388.847656 C 42.546875 383.582031 34.496094 376.144531 28.09375 369.71875 C 8.425781 349.871094 8.105469 317.367188 8.105469 317.367188 L 8.566406 285.164063 L 8.710938 227.632813 L 9.292969 168.257813 L 9.132813 117.652344 C 29.519531 120.777344 37.835938 137.160156 41.074219 147.417969 C 39.980469 155.34375 39.382813 163.445313 39.382813 171.683594 C 39.382813 248.699219 87.980469 313.128906 156.660156 334.855469 C 156.660156 334.855469 178.457031 338.753906 183.867188 347.964844 C 189.257813 357.15625 188.234375 351.292969 193.382813 369.671875 C 193.382813 369.671875 197.996094 386.007813 197.738281 412.3125 C 197.503906 438.613281 197.242188 449.589844 197.242188 449.589844 L 202.636719 449.589844 C 202.636719 449.589844 206.5 426.863281 203.941406 399.03125 C 201.347656 371.1875 200.582031 358.421875 191.058594 344.886719 C 191.058594 344.886719 190.746094 344.3125 189.925781 343.382813 C 189.097656 342.441406 187.777344 341.152344 185.871094 339.699219 C 183.925781 338.234375 181.394531 336.648438 178.050781 335.089844 C 174.722656 333.542969 170.617188 332.070313 163.179688 329.871094 C 94.246094 308.289063 45.875 245.457031 45.875 171.148438 C 45.875 80.105469 118.507813 6.277344 208.128906 6.277344 C 297.726563 6.277344 370.378906 80.105469 370.378906 171.148438 C 370.378906 244.214844 323.601563 306.203125 258.792969 327.839844 C 258.792969 327.839844 243.070313 332.855469 236.703125 335.851563 C 230.300781 338.789063 220.550781 344.96875 216.503906 363.78125 C 212.5 382.589844 212.746094 387.394531 212.226563 394.71875 C 211.664063 402.070313 211.039063 412.347656 211.277344 421.824219 C 211.550781 431.300781 212.09375 443.839844 212.871094 449.84375 L 218.945313 449.84375 C 218.945313 449.84375 217.984375 426.621094 217.984375 413.667969 C 217.984375 400.730469 218.382813 389.398438 221.0625 375.785156 C 223.777344 362.175781 228.753906 350.4375 233.164063 346.03125 C 237.605469 341.636719 248.28125 338.28125 252.679688 336.96875 C 323.785156 315.855469 376.429688 250.472656 376.429688 171.464844 C 376.429688 162.832031 375.816406 154.308594 374.59375 146.011719 C 378.132813 135.734375 386.550781 120.632813 406.054688 117.652344 L 405.902344 168.257813 L 406.488281 227.632813 L 406.636719 285.164063 L 407.089844 317.367188 C 407.089844 317.367188 406.789063 349.871094 387.101563 369.71875 C 380.730469 376.144531 372.679688 383.582031 363.589844 388.847656 C 336.371094 404.671875 302.925781 416.738281 301.90625 449.195313 M 228.5 331.296875 C 296.675781 321.308594 348.714844 262.195313 348.714844 191.191406 C 348.714844 113.195313 285.519531 49.925781 207.554688 49.925781 C 129.628906 49.925781 66.386719 113.195313 66.386719 191.191406 C 66.386719 261.898438 118.324219 320.46875 186.058594 330.839844 C 186.058594 330.839844 187.121094 325.230469 164.199219 315.109375 C 141.257813 304.992188 114.480469 295.699219 107.601563 274.085938 C 100.710938 252.472656 107.855469 222.355469 108.050781 202.300781 C 108.050781 202.300781 110.195313 221.589844 116.808594 236.203125 C 126.285156 257.199219 143.890625 264.625 163.3125 272.988281 C 163.3125 272.988281 184.945313 281.050781 192.726563 291.121094 C 192.726563 291.121094 197.476563 296.007813 199.136719 302.378906 C 200.175781 305.699219 203.59375 305.625 203.734375 302.546875 C 203.863281 299.453125 203.148438 284.949219 202.382813 281.332031 C 201.636719 277.707031 201.042969 275.046875 194.535156 271.933594 C 148.796875 265.570313 115.898438 226.5 115.898438 179.507813 C 115.898438 128.089844 155.589844 86.582031 206.667969 86.582031 C 257.726563 86.582031 299.160156 128.28125 299.160156 179.699219 C 299.160156 226.066406 265.457031 264.550781 221.363281 271.640625 C 221.363281 271.640625 214.738281 273.175781 213.492188 281.992188 C 212.277344 290.828125 212.277344 302.765625 212.277344 302.765625 C 212.277344 302.765625 214.179688 306.570313 216.382813 303.171875 C 216.382813 303.171875 218.910156 287.382813 242.882813 277.398438 C 272.121094 265.183594 294.882813 257.21875 303.84375 221.5625 C 303.84375 221.5625 307.472656 205.925781 307.472656 202.320313 C 307.472656 202.320313 310.703125 233.820313 310.988281 240.222656 C 311.257813 246.621094 313.402344 267.460938 306.523438 277.867188 C 299.59375 288.277344 299.558594 291.449219 282.4375 300.984375 C 265.277344 310.558594 259.53125 311.4375 254.246094 313.789063 C 249.003906 316.15625 235.757813 320.742188 228.5 331.296875 M 217.769531 225.828125 C 227.046875 223.480469 235.191406 218.050781 240.996094 210.640625 C 246.84375 203.222656 250.335938 193.824219 250.335938 183.632813 C 250.335938 159.667969 231.132813 140.226563 207.488281 140.226563 C 183.8125 140.226563 164.644531 159.667969 164.644531 183.632813 C 164.644531 204.992188 179.847656 222.742188 199.894531 226.480469 C 202.90625 226.613281 204.460938 227.882813 205.269531 229.113281 C 206.109375 230.339844 206.175781 231.578125 206.175781 231.578125 C 206.175781 231.566406 206.855469 250.066406 206.667969 253.625 C 206.460938 257.160156 203.402344 253.90625 203.402344 253.90625 C 202.089844 239.050781 187.773438 228.40625 175.003906 222.0625 C 171.898438 220.535156 164.304688 215.945313 159.820313 208.652344 C 155.316406 201.382813 155.46875 190.410156 155.46875 190.410156 C 145.039063 218.109375 156.488281 236.871094 156.488281 236.871094 C 166.207031 252.273438 176.929688 254.371094 191.058594 261.605469 C 198.410156 265.355469 196.25 268.808594 194.550781 269.070313 C 174.457031 266.164063 159.335938 255.925781 147.558594 241.957031 C 135.789063 227.988281 128.644531 209.859375 128.644531 190.066406 C 128.644531 145.949219 163.960938 110.167969 207.488281 110.167969 C 251.007813 110.167969 286.285156 145.949219 286.285156 190.066406 C 286.285156 229.328125 259.644531 262.179688 222.757813 268.902344 C 220.738281 269.363281 215.683594 266.164063 224.515625 261.835938 C 230.152344 259.070313 241.203125 255.859375 249.996094 248.109375 C 258.792969 240.371094 262.925781 232.492188 264.410156 219.441406 C 265.917969 206.386719 262.925781 196.335938 260.550781 190.558594 C 260.550781 190.558594 260.113281 202.546875 255.613281 208.960938 C 251.066406 215.382813 248.695313 216.65625 238.585938 223.289063 C 228.449219 229.941406 219.402344 235.492188 215.964844 242.542969 C 212.5 249.609375 212.5 253.886719 212.5 253.886719 C 212.5 253.886719 209.488281 257.304688 209.488281 253.246094 C 209.488281 249.175781 210.125 231.859375 210.125 231.859375 C 210.125 231.859375 209.925781 230.6875 210.785156 229.332031 C 211.652344 227.988281 213.558594 226.5 217.769531 225.828125 M 214.679688 223.6875 C 232.359375 220.496094 246.382813 204.519531 246.382813 185.664063 C 246.382813 164.480469 228.386719 147.316406 207.488281 147.316406 C 186.59375 147.316406 169.632813 164.480469 169.632813 185.664063 C 169.632813 204.839844 183.554688 220.742188 201.730469 223.5625 C 201.730469 223.5625 203.554688 224.289063 203.902344 221.101563 C 204.246094 217.902344 203.902344 214.957031 203.902344 214.957031 C 203.902344 214.957031 203.296875 212.613281 202.535156 210.347656 C 202.535156 210.347656 196.558594 198.128906 197.175781 184.8125 C 197.789063 171.488281 205.488281 167.652344 207.339844 155.128906 C 207.339844 155.128906 213.617188 168.84375 217.089844 178.347656 C 220.550781 187.820313 218.503906 194.515625 217.296875 198.527344 C 216.078125 202.582031 212.804688 210.640625 212.398438 215.097656 C 211.984375 219.523438 211.984375 221.136719 211.984375 221.136719 C 211.984375 222.703125 213.265625 223.773438 214.679688 223.6875 "/>
</g>
</svg>
