<svg width="512" height="512" viewBox="0 0 512 512" fill="none" xmlns="http://www.w3.org/2000/svg">
<path d="M113.781 430.126C101.724 427.367 91.8872 417.065 89.7155 404.923C88.7291 399.408 88.778 163.67 89.7668 158.004C91.8686 145.957 101.166 135.542 112.588 132.437C115.441 131.662 119.968 131.342 128.079 131.342H139.539V125.061C139.539 121.432 139.991 117.193 140.609 115.022C141.919 110.419 145.973 105.611 150.774 102.967C154.094 101.138 154.667 101.064 167.195 100.841L180.177 100.611L181.485 97.28C183.146 93.0548 189.991 85.857 194.365 83.7365C196.176 82.8587 199.248 81.8181 201.191 81.4242C212.287 79.1744 224.752 86.0724 230.082 97.4118L231.921 101.324L245.284 101.554C257.511 101.764 258.885 101.917 261.456 103.352C269.188 107.669 271.737 112.405 272.398 123.685L272.847 131.342H283.862C291.424 131.342 296.102 131.675 298.786 132.404C309.838 135.408 317.914 143.27 321.173 154.198C322.321 158.046 322.466 160.929 322.466 179.823V201.113L325.367 202.641C341.533 211.157 355.659 225.975 364.041 243.208C370.993 257.503 373.7 269.571 373.696 286.258C373.693 297.886 372.591 304.902 369.145 315.231L366.74 322.44L392.638 349.575C416.501 374.577 418.712 377.1 420.781 381.684C422.705 385.947 423.072 387.646 423.344 393.541C423.729 401.885 422.227 407.956 418.16 414.487C408.761 429.584 391.709 434.844 376.059 427.474C371.586 425.367 369.659 423.549 346.868 399.926L322.466 374.634V388.951C322.466 401.169 322.27 403.931 321.126 407.794C318.11 417.977 311.815 424.87 301.648 429.125L297.553 430.839L207.795 430.97C134.047 431.077 117.279 430.926 113.781 430.126ZM398.861 414.621C405.634 411.304 409.839 404.533 409.828 396.961C409.815 388.835 409.191 387.991 383.091 360.841L359.62 336.427L356.632 340.849C352.285 347.281 344.447 355.576 338.162 360.396L332.678 364.601L355.728 388.544C370.238 403.616 379.849 413.053 381.668 414.015C387.68 417.194 393.209 417.389 398.861 414.621ZM297.383 415.222C300.91 413.909 304.423 410.977 306.623 407.51C308.452 404.629 308.476 404.435 308.698 390.739L308.922 376.883L306.991 377.393C287.966 382.426 268.669 380.996 250.329 373.194L244.36 370.655H193.417C157.893 370.655 141.816 370.416 140.303 369.865C136.746 368.572 135.133 363.738 136.903 359.683C138.647 355.689 138.546 355.698 182.544 355.698H222.954L217.887 350.078C215.1 346.986 211.613 342.511 210.137 340.132L207.454 335.806L173.781 335.602L140.109 335.399L138.118 333.073C135.958 330.55 135.575 327.825 136.942 324.695C138.623 320.844 139.025 320.798 170.976 320.798C198.753 320.798 200.407 320.727 199.969 319.551C199.073 317.147 195.509 302.169 195.509 300.807C195.509 299.469 194.731 299.431 167.813 299.431H140.117L138.036 297.26C136.172 295.314 135.992 294.752 136.307 291.838C136.522 289.846 137.223 287.998 138.117 287.065C139.553 285.566 140.011 285.539 167.543 285.341L195.509 285.14L195.533 279.643C195.546 276.62 195.996 272.063 196.533 269.517C197.07 266.97 197.52 264.647 197.533 264.353C197.546 264.059 184.633 263.819 168.837 263.819H140.116L138.121 261.737C135.312 258.805 135.312 254.587 138.121 251.656L140.116 249.574H170.536H200.956L203.995 243.342C205.666 239.914 208.278 235.187 209.798 232.836L212.563 228.563L175.65 228.207L138.737 227.85L137.09 225.852C134.673 222.919 134.821 218.776 137.439 216.044L139.434 213.962H182.672H225.91L229.959 210.801C246.872 197.601 268.016 190.953 289.02 192.23C296.03 192.656 305.039 194.084 307.868 195.217C308.776 195.58 308.874 193.409 308.687 177.197C308.486 159.82 308.388 158.596 306.978 155.847C306.155 154.243 304.335 151.879 302.932 150.594C298.488 146.523 296.629 146.04 284.178 145.73L272.852 145.447L272.447 152.911C271.83 164.273 269.041 169.48 261.495 173.356L257.254 175.535L204.71 175.34L152.167 175.145L149.345 173.57C145.731 171.553 142.61 168.284 140.738 164.557C139.545 162.183 139.206 160.06 138.984 153.599L138.709 145.587H128.668C113.761 145.587 108.167 147.91 104.479 155.633L102.681 159.399V281.076V402.753L104.364 406.218C106.313 410.232 109.985 413.648 113.918 415.105C117.894 416.578 293.441 416.69 297.383 415.222ZM299.515 362.46C314.226 359.289 326.715 352.256 337.641 340.991C348.808 329.477 356.129 314.616 358.951 297.732C363.468 270.702 353.405 242.262 333.136 224.771C323.124 216.131 313.917 210.935 302.989 207.759C296.699 205.931 295.29 205.786 284.243 205.83C273.589 205.873 271.576 206.081 265.624 207.747C252.589 211.397 240.518 218.54 231.44 227.974C216.535 243.463 208.478 263.513 208.478 285.118C208.478 306.654 216.197 326.193 230.608 341.141C241.837 352.787 255.173 360.066 270.933 363.151C277.658 364.467 291.786 364.126 299.515 362.46ZM250.5 308.718C234.366 291.924 234.105 291.606 234.105 288.703C234.105 284.816 237.234 281.625 241.045 281.625C243.395 281.625 244.399 282.499 256.563 295.144L269.568 308.663L297.231 279.831C323.112 252.855 325.048 250.998 327.282 250.998C328.596 250.998 330.386 251.521 331.26 252.16C333.274 253.632 334.729 257.215 334.289 259.619C334.058 260.877 324.04 271.803 303.106 293.628C272.901 325.119 272.207 325.784 269.579 325.784C266.986 325.784 266.338 325.203 250.5 308.718ZM257.683 159.218C258.894 157.658 258.988 156.184 258.988 138.695C258.988 127.766 258.707 119.305 258.32 118.55C257.086 116.144 253.814 115.673 238.356 115.673H223.389L221.504 113.705C220.137 112.278 219.487 110.71 219.143 108.003C217.98 98.8539 207.843 93.6934 199.582 98.0447C196.051 99.904 193.492 104.006 193.47 107.838C193.453 110.968 191.263 114.806 189.217 115.293C188.36 115.497 180.68 115.746 172.149 115.846C157.031 116.024 156.599 116.07 155.085 117.651C153.545 119.259 153.532 119.445 153.532 138.546V157.818L155.462 159.551L157.392 161.283L206.885 161.092L256.379 160.9L257.683 159.218Z" fill="currentColor"/>
</svg>
