<svg width="512" height="512" viewBox="0 0 512 512" fill="none" xmlns="http://www.w3.org/2000/svg">
<g clip-path="url(#clip0_15_9)">
<path d="M311.504 431.086C306.321 429.203 304.324 427.483 285.978 409.101L267.186 390.272L262.389 392.191C241.877 400.397 217.489 399.481 197.78 389.765C175.304 378.683 160.008 358.821 154.642 333.749C152.947 325.827 152.921 309.806 154.591 302.372C158.204 286.297 165.303 273.256 176.582 261.977C203.49 235.069 244.005 230.922 276.341 251.766C283.743 256.537 294.076 266.797 298.904 274.169C314.86 298.531 316.518 329.947 303.183 355.258L300.736 359.902L318.993 378.221C339.883 399.182 340.423 399.967 340.49 409.457C340.527 414.66 340.301 415.623 338.087 419.737C335.17 425.158 331.299 428.662 326.065 430.62C321.678 432.262 315.302 432.466 311.504 431.086ZM323.429 419.415C327.989 417.251 330.189 412.226 329.107 406.447C328.664 404.081 325.868 400.972 308.209 383.213C292.646 367.561 287.826 362.298 287.835 360.967C287.842 360.009 289.3 356.808 291.076 353.854C297.781 342.707 300.809 331.756 300.805 318.68C300.798 301.124 295.64 286.938 284.512 273.876C258.194 242.985 211.515 241.777 183.171 271.254C175.034 279.716 169.463 289.776 166.034 302.201C164.08 309.28 164.299 327.752 166.428 335.543C173.201 360.321 193.375 379.59 218.37 385.155C221.531 385.859 227.002 386.331 232.208 386.348C243.918 386.388 251.044 384.857 262.179 379.909C265.936 378.24 268.274 377.59 269.355 377.915C270.237 378.18 280.162 387.525 291.411 398.682C302.659 409.839 312.508 419.32 313.298 419.752C315.426 420.915 320.633 420.742 323.429 419.415ZM224.765 374.642C202.627 371.55 184.263 355.375 177.886 333.35C176.5 328.564 176.242 326.039 176.277 317.603C176.316 308.273 176.479 307.089 178.571 300.992C189.299 269.724 221.717 253.813 252.13 264.889C266.722 270.204 279.178 282.126 284.946 296.3C290.062 308.872 290.692 324.181 286.582 336.067C281.242 351.511 270.695 363.216 256.004 370.004C246.743 374.283 234.844 376.049 224.765 374.642ZM242.122 362.828C252.166 360.7 262.435 354.235 268.674 346.114C275.236 337.57 278.062 329.446 278.091 319.039C278.113 310.361 277.099 305.87 273.317 297.925C269.139 289.149 261.838 281.978 252.597 277.571C248.882 275.8 243.825 273.947 241.359 273.454C235.453 272.273 224.905 272.911 218.922 274.81C209.442 277.82 200.317 284.696 194.743 293.031C185.601 306.7 184.566 324.149 192.036 338.711C201.626 357.408 221.817 367.13 242.122 362.828ZM226.771 350.31C222.446 345.984 224.984 338.486 230.773 338.486C236.562 338.486 239.1 345.984 234.775 350.31C233.511 351.574 231.921 352.407 230.773 352.407C229.625 352.407 228.036 351.574 226.771 350.31ZM227.461 330.42C226.227 328.933 226.269 322.178 227.536 318.341C228.122 316.569 230.472 313.398 233.752 309.955C238.514 304.955 239.026 304.139 239.026 301.531C239.026 294.49 229.078 292.764 224.335 298.982C220.927 303.451 216.062 301.7 216.062 296.006C216.062 291.936 218.747 288.37 223.597 285.998C227.155 284.257 228.165 284.086 233.204 284.378C241.814 284.876 246.796 288.298 249.058 295.268C250.986 301.21 248.564 307.733 241.82 314.756C237.158 319.61 235.438 322.977 235.438 327.243C235.438 329.344 235.066 330.31 234.05 330.854C231.962 331.971 228.562 331.747 227.461 330.42ZM81.0976 293.619L79 291.521V187.022V82.5228L80.7614 80.7614L82.5228 79H158.656H234.789L236.548 80.8988L238.308 82.7976V152.921C238.308 222.777 238.301 223.052 236.821 224.936C235.663 226.407 234.706 226.826 232.505 226.826C230.083 226.826 229.471 226.491 228.254 224.494C226.864 222.214 226.832 220.692 226.829 156.322L226.826 90.4817H158.654H90.4816V187.358V284.235H117.066H143.65L145.411 285.996C147.781 288.366 147.663 291.03 145.075 293.619L142.977 295.716H113.086H83.1951L81.0976 293.619ZM327.291 294.788C324.582 293.418 323.36 290.383 324.454 287.742C324.939 286.572 325.915 285.305 326.625 284.925C327.412 284.504 345.958 284.235 374.247 284.235H420.58V187.358V90.4817H352.407H284.235V158.547C284.235 206.392 283.999 227.288 283.442 228.887C282.06 232.85 277.158 233.934 274.313 230.906L272.753 229.246V155.884V82.5228L274.515 80.7614L276.276 79L352.195 79.011C393.951 79.0169 428.456 79.2592 428.874 79.5492C429.291 79.8392 430.179 80.8748 430.847 81.8507C431.974 83.4972 432.061 91.1089 432.061 187.573V291.521L429.964 293.619L427.866 295.716L378.476 295.706C340.102 295.698 328.685 295.493 327.291 294.788ZM109.466 259.51C107.72 257.764 107.704 257.627 107.704 244.217C107.704 225.884 106.973 226.551 126.639 226.953L137.971 227.185L139.701 229.199C141.395 231.169 141.432 231.493 141.432 244.48C141.432 262.389 142.554 261.271 124.568 261.271C111.36 261.271 111.209 261.254 109.466 259.51ZM129.95 244.049V238.308H124.209H118.468V244.049V249.79H124.209H129.95V244.049ZM303.348 259.784L301.457 258.297V244.356C301.457 225.775 300.657 226.509 320.462 226.94L331.723 227.185L333.454 229.199C335.141 231.161 335.185 231.532 335.185 243.766C335.185 256.811 334.615 259.793 331.923 260.826C331.284 261.071 325.019 261.271 318 261.271C306.177 261.271 305.1 261.162 303.348 259.784ZM323.703 244.049V238.308H317.962H312.221V244.049V249.79H317.962H323.703V244.049ZM155.948 249.31C154.841 248.864 152.913 245.283 152.913 243.671C152.913 243.029 153.857 241.559 155.011 240.406L157.108 238.308H167.113C176.148 238.308 177.302 238.452 179.009 239.795C181.499 241.754 181.664 246.151 179.329 248.327C177.891 249.666 176.877 249.785 167.309 249.733C161.562 249.702 156.45 249.511 155.948 249.31ZM348.428 248.028C346.058 245.659 346.175 242.994 348.764 240.406L350.862 238.308H374.645C398.89 238.308 400.398 238.46 402.437 241.116C403.886 243.003 403.506 246.118 401.596 248.028L399.834 249.79H375.012H350.189L348.428 248.028ZM110.801 203.858C108.036 202.744 107.704 200.938 107.704 187.014C107.704 169.004 106.573 170.136 124.569 170.136H137.912L139.672 172.035C141.411 173.911 141.431 174.093 141.409 187.284C141.387 201.243 141.217 202.07 138.07 203.746C136.208 204.738 113.219 204.832 110.801 203.858ZM129.95 187.358V181.617H124.209H118.468V187.358V193.099H124.209H129.95V187.358ZM304.554 203.881C301.779 202.722 301.457 200.942 301.457 186.74V173.11L303.348 171.623C305.1 170.245 306.177 170.136 318 170.136C325.019 170.136 331.284 170.336 331.923 170.581C334.615 171.614 335.185 174.596 335.185 187.641C335.185 199.874 335.14 200.247 333.454 202.208L331.724 204.222L318.923 204.379C311.882 204.465 305.416 204.241 304.554 203.881ZM323.703 187.358V181.617H317.962H312.221V187.358V193.099H317.962H323.703V187.358ZM155.038 191.028C153.869 189.86 152.913 188.379 152.913 187.737C152.913 185.963 154.866 182.565 156.175 182.063C156.813 181.818 168.304 181.617 181.709 181.617H206.081L207.843 183.379C209.981 185.517 210.142 188.687 208.233 191.046L206.862 192.74L182.012 192.947L157.162 193.153L155.038 191.028ZM349.798 192.274C346.483 190.638 345.774 186.033 348.428 183.379L350.189 181.617H375.012H399.834L401.596 183.379C403.734 185.517 403.895 188.687 401.986 191.046L400.615 192.74L375.973 192.885C359.857 192.98 350.8 192.769 349.798 192.274ZM109.264 145.512C107.775 143.927 107.704 143.228 107.704 130.208C107.704 112.134 106.371 113.445 124.741 113.445H138.457L139.944 115.336C141.325 117.092 141.432 118.16 141.432 130.309C141.432 142.457 141.326 143.526 139.944 145.282L138.457 147.172H124.641C111.127 147.172 110.791 147.136 109.264 145.512ZM129.95 130.309V124.927H124.209H118.468V130.309V135.691H124.209H129.95V130.309ZM303.018 145.512C301.528 143.925 301.457 143.231 301.457 130.083C301.457 117.272 301.557 116.216 302.892 114.88C304.229 113.544 305.284 113.445 318.269 113.445H332.21L333.697 115.336C335.08 117.093 335.185 118.159 335.185 130.438C335.185 148.3 336.335 147.172 318.12 147.172C304.892 147.172 304.542 147.134 303.018 145.512ZM323.703 130.309V124.927H317.962H312.221V130.309V135.691H317.962H323.703V130.309ZM154.4 133.8C153.582 132.76 152.913 131.189 152.913 130.309C152.913 129.428 153.582 127.857 154.4 126.817L155.888 124.927H181.283C206.483 124.927 206.689 124.939 208.141 126.497C208.966 127.383 209.604 129.045 209.604 130.309C209.604 131.572 208.966 133.235 208.141 134.12C206.689 135.679 206.483 135.691 181.283 135.691H155.888L154.4 133.8ZM348.154 133.8C347.336 132.76 346.666 131.189 346.666 130.309C346.666 129.428 347.336 127.857 348.154 126.817L349.641 124.927H375.012H400.382L401.87 126.817C403.757 129.216 403.757 131.401 401.87 133.8L400.382 135.691H375.012H349.641L348.154 133.8Z" fill="black"/>
</g>
<defs>
<clipPath id="clip0_15_9">
<rect width="512" height="512" fill="white"/>
</clipPath>
</defs>
</svg>
